<svg fill="none" height="173" viewBox="0 0 292 173" width="292" xmlns="http://www.w3.org/2000/svg" xmlns:xlink="http://www.w3.org/1999/xlink"><mask id="a" height="135" maskUnits="userSpaceOnUse" width="193" x="49" y="27"><rect fill="#f3f7fb" height="134.321" rx="11.1449" width="192.498" x="49.3784" y="27.0183"/></mask><mask id="b" height="95" maskUnits="userSpaceOnUse" width="95" x="197" y="0"><circle cx="244.562" cy="47.049" fill="#c4c4c4" r="47.049"/></mask><mask id="c" height="99" maskUnits="userSpaceOnUse" width="98" x="0" y="74"><circle cx="48.9124" cy="123.445" fill="#c4c4c4" r="48.9124"/></mask><g mask="url(#a)"><rect fill="#f3f7fb" height="134.321" rx="11.1449" width="192.498" x="49.3784" y="27.0183"/><path d="m146.272 145.998h-1.398v1.398h1.398zm65.682 0v1.398h1.397v-1.398zm0-22.552v-1.398h-1.398v1.398zm23.757 0h1.398v-1.398h-1.398zm-90.837-4.193v26.745h2.795v-26.745zm1.398 28.143h33.074v-2.795h-33.074zm33.074 0h32.608v-2.795h-32.608zm34.005-1.398v-22.552h-2.795v22.552zm-1.397-21.155h23.757v-2.795h-23.757zm22.36-1.397v40.061h2.795v-40.061z" fill="#0de3b0"/><path d="m54.9681 76.8625v-13.5091h26.0866v28.8816" stroke="#0de3b0" stroke-width="2.79499"/><path d="m127.172 62.8876v-36.3349h2.795v36.3349z" fill="#0de3b0"/><circle fill="#0de3b0" r="3.72666" transform="matrix(1 0 0 -1 128.57 59.6267)"/><g stroke="#c1dcff" stroke-width="10.2483"><path d="m200.774 27.0183v22.8258m38.198 25.6207h-38.198v-25.6207m38.198 4.6583h-21.894m5.59-16.77v-10.7141m-21.894 22.8258h-60.093v-22.8258"/><path d="m70.8063 161.178v-29.347-29.348h-24.2233m46.1174 21.894v-72.6695"/><path d="m93.6323 161.178v-13.742h24.2237v-13.742h18.633m63.819-38.1984v38.1984h-43.788m86.179-24.689h-18.634v-34.006"/><path d="m223.599 130.433v30.745"/><path d="m68.0118 69.875v13.0433"/><path d="m183.538 30.745h-22.36"/><path d="m95.9614 27.0183h-49.3782"/><path d="m42.3906 50.3099h73.1354v-23.2916"/><path d="m112.731 157.451h58.695m51.241 0h-35.869"/></g><rect fill="#1a7dff" height="47.5149" rx="3.72666" width="79.1914" x="108.073" y="67.08"/><path d="m100.578 108.073h14.017l-4.141-4.658v-9.3167l-11.1691 10.7707c-1.2068 1.163-.383 3.204 1.2931 3.204z" fill="#1a7dff"/><path d="m196.623 73.6017h-14.017l4.141 4.6583v9.3167l11.169-10.7704c1.207-1.1636.383-3.2046-1.293-3.2046z" fill="#1a7dff"/><path clip-rule="evenodd" d="m170.15 79.8311c0-.3532.286-.6394.639-.6394h4.842c.353 0 .639.2862.639.6394v21.9229c0 .353-.286.639-.639.639h-4.842c-.353 0-.639-.286-.639-.639zm-9.564 15.9746c-.603.9335-1.654 1.4066-3.121 1.4066h-.993-.27v-.2667-12.2813-.2667h.27.925c1.465 0 2.523.4706 3.151 1.4002.6.8899.89 2.5273.89 5.0085 0 2.4759-.278 4.1108-.852 4.9994zm4.624-14.0137c-1.57-1.7246-4.141-2.6003-7.643-2.6003h-6.812c-.353 0-.64.2866-.64.6398v21.9475c0 .353.287.639.64.639h6.882c3.477 0 6.03-.876 7.589-2.599 1.571-1.7374 2.367-4.7699 2.367-9.0128 0-4.2455-.801-7.278-2.383-9.0142zm-36.887 8.8695h-1.817-.27v-.2667-5.7995-.268h.27 1.817c1.114 0 1.874.2385 2.323.7257.441.4757.655 1.281.655 2.4581 0 1.1066-.211 1.8862-.648 2.3849-.444.5078-1.226.7655-2.33.7655zm3.946 11.8225h4.598c.387 0 .446-.133.469-.183.073-.165.036-.385-.107-.654l-3.669-6.8752-.132-.2462.255-.1206.125-.059c2.421-1.145 3.648-3.444 3.648-6.8343 0-3.053-.709-5.2123-2.107-6.4163-1.417-1.2181-3.756-1.8349-6.957-1.8349h-7.568c-.353 0-.639.2889-.639.642v21.9425c0 .353.286.639.639.639h4.773c.353 0 .639-.285.639-.639v-6.1859-.2667h.269 1.251.17l.074.1513 3.02 6.2163c.25.494.647.724 1.249.724zm8.833-23.2923c-.353 0-.639.2862-.639.6394v21.9229c0 .353.286.639.639.639h4.842c.353 0 .639-.286.639-.639v-21.9229c0-.3532-.286-.6394-.639-.6394z" fill="#fff" fill-rule="evenodd"/></g><g mask="url(#b)"><circle cx="244.562" cy="47.049" fill="#eaf8da" r="47.049"/><path d="m209.737 42.8824c0 18.2469 21.51 30.1332 40.408 30.1332 18.899 0 28.027-11.8863 28.027-30.1332s-15.319-33.03755-34.218-33.03755c-18.898 0-34.217 14.79065-34.217 33.03755z" style="fill:#453a84;stroke:#453a84;stroke-width:2.22821;stroke-miterlimit:10;stroke-linecap:round;stroke-linejoin:round"/><path d="m235.442 11.288c.424-2.17556 2.769-2.94297 4.652-3.3919 1.879-.44893 3.831-.67532 5.764-.68299 3.847-.01919 7.729.77508 11.29 2.21396 3.543 1.43123 7.02 3.40343 9.739 6.12003 2.576 2.5747 4.359 5.7786 5.668 9.1475 1.313 3.3843 2.098 6.9527 2.649 10.5288.439 2.8509.789 5.7364.94 8.618.242 4.6466-.32 9.2894-1.93 13.6675-2.406 6.5383-6.492 12.3092-10.835 17.7002-.697.8633-1.406 1.719-2.126 2.567-.585.6945-1.856.6484-2.449 0-.678-.7367-.624-1.7037 0-2.4404.716-.848 1.429-1.7036 2.126-2.5669.312-.3876.624-.779.932-1.1703.069-.0921.142-.1804.211-.2725.043-.0537.266-.3415.097-.1228.169-.2225.338-.4412.508-.6638 1.093-1.4388 2.149-2.9046 3.146-4.4087 1.659-2.4979 3.173-5.1032 4.378-7.8506.027-.0614.254-.5563.131-.3031-.123.2571.089-.2187.119-.2954.12-.2955.235-.5948.347-.8941.216-.5755.416-1.1588.601-1.7458.335-1.0706.612-2.1564.827-3.2577.054-.2724.104-.5448.147-.8172.034-.2188.019-.614.123-.8097-.112.2034-.05.3876-.027.1919.008-.0614.015-.119.023-.1765.016-.1343.031-.2686.046-.3991.031-.2801.058-.5602.081-.8403.085-1.0206.12-2.0489.112-3.0734-.012-2.1833-.208-4.3589-.454-6.5268-.051-.4374-.101-.8749-.158-1.3084-.023-.1957-.05-.3876-.077-.5833-.043-.3338-.008-.0422.004.0192-.02-.1458-.043-.2916-.062-.4374-.127-.8825-.266-1.7612-.42-2.6361-.308-1.7228-.681-3.4341-1.151-5.1224-.227-.8173-.481-1.6307-.759-2.4365-.135-.3875-.273-.7674-.419-1.1511-.077-.1995-.158-.3991-.239-.5986-.035-.0882-.073-.1765-.108-.2647.158.3798-.031-.0653-.05-.1113-.666-1.5118-1.456-2.9737-2.403-4.332-.104-.1497-.212-.2993-.319-.4489-.07-.0921-.139-.1842-.205-.2763.035.046.22.2724.02.023-.258-.3223-.52-.6369-.794-.9401-.55-.6101-1.135-1.1894-1.763-1.7228-.139-.1189-.281-.2379-.424-.353-.077-.0614-.15-.1189-.227-.1803.262.2072-.004 0-.069-.0499-.385-.2878-.778-.5679-1.175-.8365-.739-.4988-1.498-.9631-2.275-1.3967-.782-.4336-1.583-.8326-2.403-1.1971-.093-.0422-.189-.0806-.281-.1228-.451-.1995.196.0767-.081-.0345-.216-.0845-.428-.1727-.643-.2571-.431-.165-.863-.3223-1.298-.4681-1.717-.5756-3.477-.9823-5.268-1.2509-.269-.0384.282.0307.008.0038-.127-.0115-.25-.0307-.377-.0422-.2-.023-.401-.0422-.601-.0575-.45-.0384-.901-.0691-1.355-.0845-.898-.0307-1.799-.0191-2.692.0461-.42.0307-.839.0767-1.259.1228-.266.0307.285-.0461.019 0-.123.0192-.242.0383-.366.0575-.242.0384-.485.0844-.727.1305-.828.1611-1.645.3722-2.442.6331-.057.0192-.312.1228-.088.0269.262-.1075-.12.0614-.143.0729-.131.069-.331.1496-.431.2647.231-.2647.15-.1036.069-.0307-.262.2379.05-.0767.039-.0729-.077.0192-.143.376-.081.1151.065-.2801-.012.1343-.015.1535-.174.8902-1.29 1.4773-2.134 1.2048-.955-.2954-1.401-1.1626-1.213-2.1142z" style="fill:#453a84;stroke:#453a84;stroke-width:2.22821;stroke-miterlimit:10;stroke-linecap:round;stroke-linejoin:round"/><path d="m243.559 13.7135c.075.3737.021.1698-.012.0805.023.0636.191.3057.014.0856.204.261.034.0894-.096-.0505-.142-.1543.264.0955.058.043-.052-.0142-.116-.0663-.166-.092-.075-.0384-.154-.0738-.23-.1085-.026-.009-.392-.1838-.133-.0617.233.113-.193-.0578-.271-.0811-.171-.0495-.346-.096-.522-.1387-.352-.0891-.71-.1638-1.067-.2264-.342-.0596-.681-.1109-1.027-.1516-.161-.0199-.323-.0361-.485-.0523-.093-.0065-.185-.0131-.278-.0234-.343-.0323.191.0062-.027-.0014-.745-.0288-1.481-.0364-2.227-.0023-.761.0388-1.518.1101-2.274.2171-.371.0527-.74.11-1.107.1793-.172.0332-.347.0656-.519.0987-.195.0362.046-.0108.071-.0177-.148.0301-.296.0639-.444.0977-1.514.3474-3.003.8063-4.456 1.359-.735.2806-1.463.5899-2.18.9174-.182.0863-.368.1718-.546.2588-.07.0336-.135.0679-.204.0977-.239.1145.228-.1205-.008.0023-.355.1823-.709.3684-1.058.5598-1.305.7237-2.565 1.5314-3.749 2.4367-.291.2223-.577.4537-.86.6934.24-.2009-.105.0974-.177.1621-.164.1529-.324.3104-.482.4724-.512.5218-.987 1.0783-1.42 1.6628-.114.155-.227.3101-.332.4666.197-.2842-.035.0562-.103.1611-.216.3396-.419.6898-.607 1.0468-.336.6274-.637 1.2774-.902 1.9387-.07.1792-.141.3584-.207.5345-.034.0918-.067.1799-.097.2725-.011.0334-.091.2619-.018.0516.072-.2064-.083.2596-.105.3302-.064.208-.13.4198-.191.6285-.212.7385-.395 1.4829-.554 2.2319-.332 1.5623-.566 3.1441-.765 4.725-.205 1.6583-.381 3.3226-.552 4.9838-.007.0736-.035.4975-.018.1699.018-.3276-.001.0864-.004.1608-.006.251.002.505.02.7529.015.2237.041.4495.076.6693.009.0569.025.1152.029.1751.025.21-.093-.3887-.039-.1849.029.1122.051.2228.08.3349.113.4206.266.8212.439 1.218.164.3794-.131-.2346-.018-.031.046.084.089.1673.135.2513.108.1908.221.3747.338.5556.229.3527.485.687.751 1.0115.051.0613.274.3222.067.0802-.225-.2571.055.0582.097.1059.145.1588.298.319.449.471 1.148 1.165 2.442 2.1733 3.62 3.3087 1.181 1.1399 2.359 2.4921 2.784 4.1211.517 1.998.027 4.0022-1.018 5.7511-.363.6024-.764 1.1815-1.192 1.7394-.555.7221-1.807.7745-2.449.1509-.712-.6924-.74-1.6834-.148-2.4572.101-.13.197-.2569.294-.3915.047-.0615.092-.1276.136-.1899.145-.1999-.076.0047-.058.0911-.023-.119.379-.6032.449-.7233.247-.4322.399-.9028.623-1.3433-.001.0038-.139.4653-.072.2065.014-.0524.032-.104.047-.1564.025-.0896.046-.1761.068-.2664.049-.2071.078-.4143.104-.6259.045-.3497 0 .2404-.01.1479-.005-.0917.002-.185 0-.276-.004-.1782-.028-.3563-.052-.5345-.048-.3721.039.1614.028.1198-.022-.0712-.038-.1493-.059-.2205-.052-.1758-.115-.3538-.187-.5219-.03-.0689-.186-.3915-.026-.0682.152.3021.016.0386-.025-.0363-.092-.1681-.194-.33-.3-.4851-.098-.1415-.197-.2792-.303-.4184-.056-.0742-.116-.1453-.176-.2202-.028-.037-.061-.0711-.093-.1089-.142-.174.144.1664.151.1717-.285-.2653-.538-.5754-.818-.8475-2.607-2.5134-5.835-4.704-6.849-8.4006-.331-1.2085-.405-2.3859-.309-3.6283.127-1.658.338-3.3232.539-4.9746.395-3.2566.956-6.4925 2.122-9.5733 1.178-3.1218 3.123-5.8478 5.713-7.9457 2.47-2.0034 5.33-3.5592 8.262-4.7618 3.069-1.2584 6.358-2.11862 9.667-2.38361 1.599-.12551 3.224-.09639 4.818.10419 1.43.17985 3.086.46362 4.32 1.23942.992.6255 1.548 1.4489 1.777 2.5977.177.8943-.745 1.8397-1.602 1.8674-1.04.0509-1.676-.6265-1.863-1.586z" style="fill:#453a84;stroke:#453a84;stroke-width:2.22821;stroke-miterlimit:10;stroke-linecap:round;stroke-linejoin:round"/><path d="m220.787 46.6946h-4.07c-2.766 0-5.007 2.2085-5.007 4.9352s2.244 4.9352 5.007 4.9352h5.522" fill="#ebbe89"/><path d="m239.418 83.0093-2.455 10.107h23.768l.742-36.1565 2.971-19.3371c0-12.4223-10.55-22.4901-23.563-22.4901s-23.563 10.0715-23.563 22.4901v24.1426c0 9.7633 6.287 17.8517 15.293 20.871 4.939 1.6525 10.383-.2637 15.088-2.4474 1.252-.583 2.541-1.3332 3.747-2.3099" fill="#f5c48a"/><path d="m239.418 83.0093-2.455 10.107h23.768l.742-36.1565 2.971-19.3371c0-12.4223-10.55-22.4901-23.563-22.4901s-23.563 10.0715-23.563 22.4901v24.1426c0 9.7633 6.287 17.8517 15.293 20.8709 4.939 1.6526 10.383-.2636 15.088-2.4473 1.252-.583 2.541-1.3332 3.747-2.3099" stroke="#f5c48a" stroke-linecap="round" stroke-linejoin="round" stroke-miterlimit="10" stroke-width="2.22821"/><path d="m260.731 45.5811h4.163c2.83 0 5.121 2.659 5.121 5.9419s-2.295 5.9419-5.121 5.9419h-7.877" fill="#f5c48a"/><g stroke-linecap="round" stroke-linejoin="round" stroke-miterlimit="10"><path d="m260.731 45.5811h4.163c2.83 0 5.121 2.659 5.121 5.9419s-2.295 5.9419-5.121 5.9419h-7.877" stroke="#f5c48a" stroke-width="2.22821"/><path d="m265.011 51.9589h-3.29" stroke="#000" stroke-opacity=".6" stroke-width="2.22821"/><path d="m244.323 50.7802v3.7136" stroke="#000" stroke-opacity=".6" stroke-width="3.71369"/><path d="m225.012 50.7802v3.7136" stroke="#000" stroke-opacity=".6" stroke-width="3.71369"/><path d="m233.967 57.8807-1.857 3.3424" stroke="#000" stroke-opacity=".6" stroke-width="2.22821"/></g><path d="m252.665 78.1891s-6.454 5.4347-14.606 6.114l-1.698 6.7933c5.282.8127 10.497-1.822 12.977-6.5564z" fill="#dca768"/><path d="m257.862 12.9822c-30.466-7.83452-38.913 12.1405-38.913 12.1405 11.901 9.9087 40.026 2.5474 40.606 2.228l.589 34.8688 1.906-2.6937v-15.4636h7.243l1.64-18.9395z" style="fill:#453a84;stroke:#453a84;stroke-width:2.22821;stroke-miterlimit:10;stroke-linecap:round;stroke-linejoin:round"/><path d="m265.212 32.8529-5.728 10.6646s-13.932-5.883-15.396-14.4608c-3.401.1973-2.608 6.3965-.238 10.8975-7.656-1.5873-8.848-12.1955-8.848-12.1955l-2.687 12.0632s-4.588-5.0458-1.939-10.4305c-4.479 4.9217-6.17 10.3375-6.17 10.3375s-5.997-8.6041 1.433-12.0776c0 0-8.727 5.2016-6.388 15.4046 0 0-4.579-3.327-3.537-10.2725-.529-1.7254 1.198-5.6014 1.198-5.6014l23.436-9.1819 16.509 5.6799z" style="fill:#453a84;stroke:#453a84;stroke-width:1.97408;stroke-miterlimit:10;stroke-linecap:round;stroke-linejoin:round"/><ellipse fill="#66543e" rx="2.18489" ry="6.54694" transform="matrix(.335255 .942127 -.993722 .111881 236.058 68.9085)"/><path clip-rule="evenodd" d="m231.663 70.8196c1.344.2931 3.184.3662 5.127.1475 3.582-.4033 6.162-1.6464 5.777-2.7804-1.344-.2931-3.184-.3662-5.127-.1474-3.582.4032-6.162 1.6463-5.777 2.7803z" fill="#403528" fill-rule="evenodd"/></g><g mask="url(#c)"><circle cx="48.9124" cy="123.445" fill="#ffeeea" r="48.9124"/><path d="m14.4988 119.515.8505 8.073c.531 5.031-3.5336 11.731-3.853 15.739-.559 6.968 4.959 12.921 11.9463 12.921h9.8221l-.3993-16.075s-17.7956-20.087-18.3666-20.658z" style="fill:#105dc1;stroke:#105dc1;stroke-width:2.39564;stroke-miterlimit:10;stroke-linecap:round;stroke-linejoin:round"/><path d="m81.577 128.299 3.0185 14.937c.0638.315.1557.627.2475.934 1.6011 5.382-2.4236 10.88-8.1292 10.88h-13.1481l-7.5423-18.366z" style="fill:#105dc1;stroke:#105dc1;stroke-width:2.39564;stroke-miterlimit:10;stroke-linecap:round;stroke-linejoin:round"/><path d="m85.1141 117.918c0 20.067-22.1957 33.139-41.6962 33.139s-28.9194-13.072-28.9194-33.139c0-20.068 15.8073-36.3344 35.3078-36.3344s35.3078 16.2664 35.3078 36.3344z" style="fill:#105dc1;stroke:#105dc1;stroke-width:2.39564;stroke-miterlimit:10;stroke-linecap:round;stroke-linejoin:round"/><path d="m76.3857 120.712h4.4759c3.0424 0 5.506 2.859 5.506 6.389 0 3.529-2.4676 6.388-5.506 6.388h-6.073" fill="#ebbe89"/><path d="m56.5779 160.953 2.6394 10.867h-25.5535l-.7986-38.873-3.1942-20.791c0-13.3554 11.3434-24.1797 25.3339-24.1797 13.9906 0 25.3339 10.8283 25.3339 24.1797v25.957c0 10.497-6.7597 19.193-16.4421 22.439-5.3103 1.777-11.1636-.283-16.2224-2.631-1.3456-.627-2.7311-1.433-4.0287-2.483" fill="#ffd19b"/><path d="m56.5779 160.953 2.6394 10.867h-25.5535l-.7986-38.873-3.1942-20.791c0-13.3554 11.3434-24.1797 25.3339-24.1797 13.9906 0 25.3339 10.8283 25.3339 24.1797v25.957c0 10.497-6.7597 19.193-16.4421 22.439-5.3103 1.777-11.1636-.283-16.2224-2.631-1.3456-.627-2.7311-1.433-4.0287-2.483" stroke="#ffd19b" stroke-linecap="round" stroke-linejoin="round" stroke-miterlimit="10" stroke-width="2.39564"/><path d="m33.6636 120.712h-4.4759c-3.0424 0-5.5059 2.859-5.5059 6.389 0 3.529 2.4675 6.388 5.5059 6.388h8.4686" fill="#ffd19b"/><g stroke-linecap="round" stroke-linejoin="round" stroke-miterlimit="10"><path d="m33.6636 120.712h-4.4759c-3.0424 0-5.5059 2.859-5.5059 6.389 0 3.529 2.4675 6.388 5.5059 6.388h8.4686" stroke="#ffd19b" stroke-width="2.39564"/><path d="m30.4699 127.5h5.1906" stroke="#000" stroke-opacity=".6" stroke-width="2.39564"/><path d="m28.4731 103.943-1.5971 14.773h21.5608l.3992-19.5642 5.1906 19.5642h12.3775s3.1942-15.172-3.5935-20.3628c0 0 11.5789 6.3888 9.1833 20.3628h8.784l.6327-16.993-11.3208-12.7819-19.6567-4.9617-17.9673 9.5825z" fill="#105dc1" stroke="#105dc1" stroke-width="2.39564"/><path d="m51.3054 126.302v3.993" stroke="#000" stroke-opacity=".6" stroke-width="3.99274"/><path d="m72.0676 126.302v3.993" stroke="#000" stroke-opacity=".6" stroke-width="3.99274"/><path d="m54.5873 145.867.1717.171c4.0047 4.005 10.5209 3.925 14.4258-.171" stroke="#000" stroke-opacity=".6" stroke-width="2.39564"/><path d="m63.6829 134.288 1.9964 3.593" stroke="#000" stroke-opacity=".6" stroke-width="2.39564"/></g><path d="m42.3358 155.77s6.9386 5.843 15.7032 6.574l1.8259 7.304c-5.6794.873-11.2862-1.959-13.9525-7.05z" fill="#ebbe89"/></g><circle cx="146.271" cy="122.048" fill="#0de3b0" r="3.72666"/></svg>