<svg width="292" height="173" viewBox="0 0 292 173" fill="none" xmlns="http://www.w3.org/2000/svg">
<mask id="mask0" mask-type="alpha" maskUnits="userSpaceOnUse" x="49" y="27" width="193" height="135">
<rect x="49.3784" y="27.0183" width="192.498" height="134.321" rx="11.1449" fill="#F3F7FB"/>
</mask>
<g mask="url(#mask0)">
<rect x="49.3784" y="27.0183" width="192.498" height="134.321" rx="11.1449" fill="#F3F7FB"/>
<path d="M146.272 145.998H144.874V147.396H146.272V145.998ZM211.954 145.998V147.396H213.351V145.998H211.954ZM211.954 123.446V122.048H210.556V123.446H211.954ZM235.711 123.446H237.109V122.048H235.711V123.446ZM144.874 119.253V145.998H147.669V119.253H144.874ZM146.272 147.396H179.346V144.601H146.272V147.396ZM179.346 147.396H211.954V144.601H179.346V147.396ZM213.351 145.998V123.446H210.556V145.998H213.351ZM211.954 124.843H235.711V122.048H211.954V124.843ZM234.314 123.446V163.507H237.109V123.446H234.314Z" fill="#0DE3B0"/>
<path d="M54.9681 76.8625V63.3534H81.0547V92.235" stroke="#0DE3B0" stroke-width="2.79499"/>
<path d="M127.172 62.8876V26.5527H129.967V62.8876H127.172Z" fill="#0DE3B0"/>
<circle r="3.72666" transform="matrix(1 0 0 -1 128.57 59.6267)" fill="#0DE3B0"/>
<path d="M200.774 27.0183V49.8441M238.972 75.4648H200.774V49.8441M238.972 54.5024H217.078M222.668 37.7324V27.0183M200.774 49.8441H140.681V27.0183" stroke="#C1DCFF" stroke-width="10.2483"/>
<path d="M70.8063 161.178V131.831V102.483H46.583M92.7004 124.377V51.7075" stroke="#C1DCFF" stroke-width="10.2483"/>
<path d="M93.6323 161.178V147.436H117.856V133.694H136.489M200.308 95.4956V133.694H156.52M242.699 109.005H224.065V74.999" stroke="#C1DCFF" stroke-width="10.2483"/>
<path d="M223.599 130.433V161.178" stroke="#C1DCFF" stroke-width="10.2483"/>
<path d="M68.0118 69.875L68.0118 82.9183" stroke="#C1DCFF" stroke-width="10.2483"/>
<path d="M183.538 30.745H161.178" stroke="#C1DCFF" stroke-width="10.2483"/>
<path d="M95.9614 27.0183L46.5832 27.0183" stroke="#C1DCFF" stroke-width="10.2483"/>
<path d="M42.3906 50.3099H115.526V27.0183" stroke="#C1DCFF" stroke-width="10.2483"/>
<path d="M112.731 157.451H171.426M222.667 157.451H186.798" stroke="#C1DCFF" stroke-width="10.2483"/>
<rect x="108.073" y="67.08" width="79.1914" height="47.5149" rx="3.72666" fill="#1A7DFF"/>
<path d="M100.578 108.073L114.595 108.073L110.454 103.415L110.454 94.0983L99.2849 104.869C98.0781 106.032 98.9019 108.073 100.578 108.073Z" fill="#1A7DFF"/>
<path d="M196.623 73.6017L182.606 73.6017L186.747 78.26L186.747 87.5767L197.916 76.8063C199.123 75.6427 198.299 73.6017 196.623 73.6017Z" fill="#1A7DFF"/>
<path fill-rule="evenodd" clip-rule="evenodd" d="M170.15 79.8311C170.15 79.4779 170.436 79.1917 170.789 79.1917H175.631C175.984 79.1917 176.27 79.4779 176.27 79.8311V101.754C176.27 102.107 175.984 102.393 175.631 102.393H170.789C170.436 102.393 170.15 102.107 170.15 101.754V79.8311ZM160.586 95.8057C159.983 96.7392 158.932 97.2123 157.465 97.2123H156.472H156.202V96.9456V84.6643V84.3976H156.472H157.397C158.862 84.3976 159.92 84.8682 160.548 85.7978C161.148 86.6877 161.438 88.3251 161.438 90.8063C161.438 93.2822 161.16 94.9171 160.586 95.8057ZM165.21 81.792C163.64 80.0674 161.069 79.1917 157.567 79.1917H150.755C150.402 79.1917 150.115 79.4783 150.115 79.8315V101.779C150.115 102.132 150.402 102.418 150.755 102.418H157.637C161.114 102.418 163.667 101.542 165.226 99.819C166.797 98.0816 167.593 95.0491 167.593 90.8062C167.593 86.5607 166.792 83.5282 165.21 81.792ZM128.323 90.6615H126.506H126.236V90.3948V84.5953V84.3273H126.506H128.323C129.437 84.3273 130.197 84.5658 130.646 85.053C131.087 85.5287 131.301 86.334 131.301 87.5111C131.301 88.6177 131.09 89.3973 130.653 89.896C130.209 90.4038 129.427 90.6615 128.323 90.6615ZM132.269 102.484H136.867C137.254 102.484 137.313 102.351 137.336 102.301L137.336 102.301C137.409 102.136 137.372 101.916 137.229 101.647L133.56 94.7718L133.428 94.5256L133.683 94.405L133.808 94.346C136.229 93.201 137.456 90.902 137.456 87.5117C137.456 84.4587 136.747 82.2994 135.349 81.0954C133.932 79.8773 131.593 79.2605 128.392 79.2605H120.824C120.471 79.2605 120.185 79.5494 120.185 79.9025V101.845C120.185 102.198 120.471 102.484 120.824 102.484H125.597C125.95 102.484 126.236 102.199 126.236 101.845V95.6591V95.3924H126.505H127.756H127.926L128 95.5437L131.02 101.76C131.27 102.254 131.667 102.484 132.269 102.484ZM141.102 79.1917C140.749 79.1917 140.463 79.4779 140.463 79.8311V101.754C140.463 102.107 140.749 102.393 141.102 102.393H145.944C146.297 102.393 146.583 102.107 146.583 101.754V79.8311C146.583 79.4779 146.297 79.1917 145.944 79.1917H141.102Z" fill="white"/>
</g>
<mask id="mask1" mask-type="alpha" maskUnits="userSpaceOnUse" x="197" y="0" width="95" height="95">
<circle cx="244.562" cy="47.049" r="47.049" fill="#C4C4C4"/>
</mask>
<g mask="url(#mask1)">
<circle cx="244.562" cy="47.049" r="47.049" fill="#EAF8DA"/>
<path d="M209.737 42.8824C209.737 61.1293 231.247 73.0156 250.145 73.0156C269.044 73.0156 278.172 61.1293 278.172 42.8824C278.172 24.6355 262.853 9.84485 243.954 9.84485C225.056 9.84485 209.737 24.6355 209.737 42.8824Z" fill="#453A84" stroke="#453A84" stroke-width="2.22821" stroke-miterlimit="10" stroke-linecap="round" stroke-linejoin="round"/>
<path d="M235.442 11.288C235.866 9.11244 238.211 8.34503 240.094 7.8961C241.973 7.44717 243.925 7.22078 245.858 7.21311C249.705 7.19392 253.587 7.98819 257.148 9.42707C260.691 10.8583 264.168 12.8305 266.887 15.5471C269.463 18.1218 271.246 21.3257 272.555 24.6946C273.868 28.0789 274.653 31.6473 275.204 35.2234C275.643 38.0743 275.993 40.9598 276.144 43.8414C276.386 48.488 275.824 53.1308 274.214 57.5089C271.808 64.0472 267.722 69.8181 263.379 75.2091C262.682 76.0724 261.973 76.9281 261.253 77.7761C260.668 78.4706 259.397 78.4245 258.804 77.7761C258.126 77.0394 258.18 76.0724 258.804 75.3357C259.52 74.4877 260.233 73.6321 260.93 72.7688C261.242 72.3812 261.554 71.9898 261.862 71.5985C261.931 71.5064 262.004 71.4181 262.073 71.326C262.116 71.2723 262.339 70.9845 262.17 71.2032C262.339 70.9807 262.508 70.762 262.678 70.5394C263.771 69.1006 264.827 67.6348 265.824 66.1307C267.483 63.6328 268.997 61.0275 270.202 58.2801C270.229 58.2187 270.456 57.7238 270.333 57.977C270.21 58.2341 270.422 57.7583 270.452 57.6816C270.572 57.3861 270.687 57.0868 270.799 56.7875C271.015 56.212 271.215 55.6287 271.4 55.0417C271.735 53.9711 272.012 52.8853 272.227 51.784C272.281 51.5116 272.331 51.2392 272.374 50.9668C272.408 50.748 272.393 50.3528 272.497 50.1571C272.385 50.3605 272.447 50.5447 272.47 50.349C272.478 50.2876 272.485 50.23 272.493 50.1725C272.509 50.0382 272.524 49.9039 272.539 49.7734C272.57 49.4933 272.597 49.2132 272.62 48.9331C272.705 47.9125 272.74 46.8842 272.732 45.8597C272.72 43.6764 272.524 41.5008 272.278 39.3329C272.227 38.8955 272.177 38.458 272.12 38.0245C272.097 37.8288 272.07 37.6369 272.043 37.4412C272 37.1074 272.035 37.399 272.047 37.4604C272.027 37.3146 272.004 37.1688 271.985 37.023C271.858 36.1405 271.719 35.2618 271.565 34.3869C271.257 32.6641 270.884 30.9528 270.414 29.2645C270.187 28.4472 269.933 27.6338 269.655 26.828C269.52 26.4405 269.382 26.0606 269.236 25.6769C269.159 25.4774 269.078 25.2778 268.997 25.0783C268.962 24.9901 268.924 24.9018 268.889 24.8136C269.047 25.1934 268.858 24.7483 268.839 24.7023C268.173 23.1905 267.383 21.7286 266.436 20.3703C266.332 20.2206 266.224 20.071 266.117 19.9214C266.047 19.8293 265.978 19.7372 265.912 19.6451C265.947 19.6911 266.132 19.9175 265.932 19.6681C265.674 19.3458 265.412 19.0312 265.138 18.728C264.588 18.1179 264.003 17.5386 263.375 17.0052C263.236 16.8863 263.094 16.7673 262.951 16.6522C262.874 16.5908 262.801 16.5333 262.724 16.4719C262.986 16.6791 262.72 16.4719 262.655 16.422C262.27 16.1342 261.877 15.8541 261.48 15.5855C260.741 15.0867 259.982 14.6224 259.205 14.1888C258.423 13.7552 257.622 13.3562 256.802 12.9917C256.709 12.9495 256.613 12.9111 256.521 12.8689C256.07 12.6694 256.717 12.9456 256.44 12.8344C256.224 12.7499 256.012 12.6617 255.797 12.5773C255.366 12.4123 254.934 12.255 254.499 12.1092C252.782 11.5336 251.022 11.1269 249.231 10.8583C248.962 10.8199 249.513 10.889 249.239 10.8621C249.112 10.8506 248.989 10.8314 248.862 10.8199C248.662 10.7969 248.461 10.7777 248.261 10.7624C247.811 10.724 247.36 10.6933 246.906 10.6779C246.008 10.6472 245.107 10.6588 244.214 10.724C243.794 10.7547 243.375 10.8007 242.955 10.8468C242.689 10.8775 243.24 10.8007 242.974 10.8468C242.851 10.866 242.732 10.8851 242.608 10.9043C242.366 10.9427 242.123 10.9887 241.881 11.0348C241.053 11.1959 240.236 11.407 239.439 11.6679C239.382 11.6871 239.127 11.7907 239.351 11.6948C239.613 11.5873 239.231 11.7562 239.208 11.7677C239.077 11.8367 238.877 11.9173 238.777 12.0324C239.008 11.7677 238.927 11.9288 238.846 12.0017C238.584 12.2396 238.896 11.925 238.885 11.9288C238.808 11.948 238.742 12.3048 238.804 12.0439C238.869 11.7638 238.792 12.1782 238.789 12.1974C238.615 13.0876 237.499 13.6747 236.655 13.4022C235.7 13.1068 235.254 12.2396 235.442 11.288Z" fill="#453A84" stroke="#453A84" stroke-width="2.22821" stroke-miterlimit="10" stroke-linecap="round" stroke-linejoin="round"/>
<path d="M243.559 13.7135C243.634 14.0872 243.58 13.8833 243.547 13.794C243.57 13.8576 243.738 14.0997 243.561 13.8796C243.765 14.1406 243.595 13.969 243.465 13.8291C243.323 13.6748 243.729 13.9246 243.523 13.8721C243.471 13.8579 243.407 13.8058 243.357 13.7801C243.282 13.7417 243.203 13.7063 243.127 13.6716C243.101 13.6626 242.735 13.4878 242.994 13.6099C243.227 13.7229 242.801 13.5521 242.723 13.5288C242.552 13.4793 242.377 13.4328 242.201 13.3901C241.849 13.301 241.491 13.2263 241.134 13.1637C240.792 13.1041 240.453 13.0528 240.107 13.0121C239.946 12.9922 239.784 12.976 239.622 12.9598C239.529 12.9533 239.437 12.9467 239.344 12.9364C239.001 12.9041 239.535 12.9426 239.317 12.935C238.572 12.9062 237.836 12.8986 237.09 12.9327C236.329 12.9715 235.572 13.0428 234.816 13.1498C234.445 13.2025 234.076 13.2598 233.709 13.3291C233.537 13.3623 233.362 13.3947 233.19 13.4278C232.995 13.464 233.236 13.417 233.261 13.4101C233.113 13.4402 232.965 13.474 232.817 13.5078C231.303 13.8552 229.814 14.3141 228.361 14.8668C227.626 15.1474 226.898 15.4567 226.181 15.7842C225.999 15.8705 225.813 15.956 225.635 16.043C225.565 16.0766 225.5 16.1109 225.431 16.1407C225.192 16.2552 225.659 16.0202 225.423 16.143C225.068 16.3253 224.714 16.5114 224.365 16.7028C223.06 17.4265 221.8 18.2342 220.616 19.1395C220.325 19.3618 220.039 19.5932 219.756 19.8329C219.996 19.632 219.651 19.9303 219.579 19.995C219.415 20.1479 219.255 20.3054 219.097 20.4674C218.585 20.9892 218.11 21.5457 217.677 22.1302C217.563 22.2852 217.45 22.4403 217.345 22.5968C217.542 22.3126 217.31 22.653 217.242 22.7579C217.026 23.0975 216.823 23.4477 216.635 23.8047C216.299 24.4321 215.998 25.0821 215.733 25.7434C215.663 25.9226 215.592 26.1018 215.526 26.2779C215.492 26.3697 215.459 26.4578 215.429 26.5504C215.418 26.5838 215.338 26.8123 215.411 26.602C215.483 26.3956 215.328 26.8616 215.306 26.9322C215.242 27.1402 215.176 27.352 215.115 27.5607C214.903 28.2992 214.72 29.0436 214.561 29.7926C214.229 31.3549 213.995 32.9367 213.796 34.5176C213.591 36.1759 213.415 37.8402 213.244 39.5014C213.237 39.575 213.209 39.9989 213.226 39.6713C213.244 39.3437 213.225 39.7577 213.222 39.8321C213.216 40.0831 213.224 40.3371 213.242 40.585C213.257 40.8087 213.283 41.0345 213.318 41.2543C213.327 41.3112 213.343 41.3695 213.347 41.4294C213.372 41.6394 213.254 41.0407 213.308 41.2445C213.337 41.3567 213.359 41.4673 213.388 41.5794C213.501 42 213.654 42.4006 213.827 42.7974C213.991 43.1768 213.696 42.5628 213.809 42.7664C213.855 42.8504 213.898 42.9337 213.944 43.0177C214.052 43.2085 214.165 43.3924 214.282 43.5733C214.511 43.926 214.767 44.2603 215.033 44.5848C215.084 44.6461 215.307 44.907 215.1 44.665C214.875 44.4079 215.155 44.7232 215.197 44.7709C215.342 44.9297 215.495 45.0899 215.646 45.2419C216.794 46.4069 218.088 47.4152 219.266 48.5506C220.447 49.6905 221.625 51.0427 222.05 52.6717C222.567 54.6697 222.077 56.6739 221.032 58.4228C220.669 59.0252 220.268 59.6043 219.84 60.1622C219.285 60.8843 218.033 60.9367 217.391 60.3131C216.679 59.6207 216.651 58.6297 217.243 57.8559C217.344 57.7259 217.44 57.599 217.537 57.4644C217.584 57.4029 217.629 57.3368 217.673 57.2745C217.818 57.0746 217.597 57.2792 217.615 57.3656C217.592 57.2466 217.994 56.7624 218.064 56.6423C218.311 56.2101 218.463 55.7395 218.687 55.299C218.686 55.3028 218.548 55.7643 218.615 55.5055C218.629 55.4531 218.647 55.4015 218.662 55.3491C218.687 55.2595 218.708 55.173 218.73 55.0827C218.779 54.8756 218.808 54.6684 218.834 54.4568C218.879 54.1071 218.834 54.6972 218.824 54.6047C218.819 54.513 218.826 54.4197 218.824 54.3287C218.82 54.1505 218.796 53.9724 218.772 53.7942C218.724 53.4221 218.811 53.9556 218.8 53.914C218.778 53.8428 218.762 53.7647 218.741 53.6935C218.689 53.5177 218.626 53.3397 218.554 53.1716C218.524 53.1027 218.368 52.7801 218.528 53.1034C218.68 53.4055 218.544 53.142 218.503 53.0671C218.411 52.899 218.309 52.7371 218.203 52.582C218.105 52.4405 218.006 52.3028 217.9 52.1636C217.844 52.0894 217.784 52.0183 217.724 51.9434C217.696 51.9064 217.663 51.8723 217.631 51.8345C217.489 51.6605 217.775 52.0009 217.782 52.0062C217.497 51.7409 217.244 51.4308 216.964 51.1587C214.357 48.6453 211.129 46.4547 210.115 42.7581C209.784 41.5496 209.71 40.3722 209.806 39.1298C209.933 37.4718 210.144 35.8066 210.345 34.1552C210.74 30.8986 211.301 27.6627 212.467 24.5819C213.645 21.4601 215.59 18.7341 218.18 16.6362C220.65 14.6328 223.51 13.077 226.442 11.8744C229.511 10.616 232.8 9.75578 236.109 9.49079C237.708 9.36528 239.333 9.3944 240.927 9.59498C242.357 9.77483 244.013 10.0586 245.247 10.8344C246.239 11.4599 246.795 12.2833 247.024 13.4321C247.201 14.3264 246.279 15.2718 245.422 15.2995C244.382 15.3504 243.746 14.673 243.559 13.7135Z" fill="#453A84" stroke="#453A84" stroke-width="2.22821" stroke-miterlimit="10" stroke-linecap="round" stroke-linejoin="round"/>
<path d="M220.787 46.6946H216.717C213.951 46.6946 211.71 48.9031 211.71 51.6298C211.71 54.3565 213.954 56.565 216.717 56.565H222.239" fill="#EBBE89"/>
<path d="M239.418 83.0093L236.963 93.1163H260.731L261.473 56.9598L264.444 37.6227C264.444 25.2004 253.894 15.1326 240.881 15.1326C227.868 15.1326 217.318 25.2041 217.318 37.6227V61.7653C217.318 71.5286 223.605 79.617 232.611 82.6363C237.55 84.2888 242.994 82.3726 247.699 80.1889C248.951 79.6059 250.24 78.8557 251.446 77.879" fill="#F5C48A"/>
<path d="M239.418 83.0093L236.963 93.1163H260.731L261.473 56.9598L264.444 37.6227C264.444 25.2004 253.894 15.1326 240.881 15.1326C227.868 15.1326 217.318 25.2041 217.318 37.6227V61.7653C217.318 71.5286 223.605 79.617 232.611 82.6362C237.55 84.2888 242.994 82.3726 247.699 80.1889C248.951 79.6059 250.24 78.8557 251.446 77.879" stroke="#F5C48A" stroke-width="2.22821" stroke-miterlimit="10" stroke-linecap="round" stroke-linejoin="round"/>
<path d="M260.731 45.5811H264.894C267.724 45.5811 270.015 48.2401 270.015 51.523C270.015 54.8059 267.72 57.4649 264.894 57.4649H257.017" fill="#F5C48A"/>
<path d="M260.731 45.5811H264.894C267.724 45.5811 270.015 48.2401 270.015 51.523C270.015 54.8059 267.72 57.4649 264.894 57.4649H257.017" stroke="#F5C48A" stroke-width="2.22821" stroke-miterlimit="10" stroke-linecap="round" stroke-linejoin="round"/>
<path d="M265.011 51.9589H261.721" stroke="black" stroke-opacity="0.6" stroke-width="2.22821" stroke-miterlimit="10" stroke-linecap="round" stroke-linejoin="round"/>
<path d="M244.323 50.7802V54.4938" stroke="black" stroke-opacity="0.6" stroke-width="3.71369" stroke-miterlimit="10" stroke-linecap="round" stroke-linejoin="round"/>
<path d="M225.012 50.7802V54.4938" stroke="black" stroke-opacity="0.6" stroke-width="3.71369" stroke-miterlimit="10" stroke-linecap="round" stroke-linejoin="round"/>
<path d="M233.967 57.8807L232.11 61.2231" stroke="black" stroke-opacity="0.6" stroke-width="2.22821" stroke-miterlimit="10" stroke-linecap="round" stroke-linejoin="round"/>
<path d="M252.665 78.1891C252.665 78.1891 246.211 83.6238 238.059 84.3031L236.361 91.0964C241.643 91.9091 246.858 89.2744 249.338 84.54L252.665 78.1891Z" fill="#DCA768"/>
<path d="M257.862 12.9822C227.396 5.14768 218.949 25.1227 218.949 25.1227C230.85 35.0314 258.975 27.6701 259.555 27.3507L260.144 62.2195L262.05 59.5258V44.0622H269.293L270.933 25.1227L257.862 12.9822Z" fill="#453A84" stroke="#453A84" stroke-width="2.22821" stroke-miterlimit="10" stroke-linecap="round" stroke-linejoin="round"/>
<path d="M265.212 32.8529L259.484 43.5175C259.484 43.5175 245.552 37.6345 244.088 29.0567C240.687 29.254 241.48 35.4532 243.85 39.9542C236.194 38.3669 235.002 27.7587 235.002 27.7587L232.315 39.8219C232.315 39.8219 227.727 34.7761 230.376 29.3914C225.897 34.3131 224.206 39.7289 224.206 39.7289C224.206 39.7289 218.209 31.1248 225.639 27.6513C225.639 27.6513 216.912 32.8529 219.251 43.0559C219.251 43.0559 214.672 39.7289 215.714 32.7834C215.185 31.058 216.912 27.182 216.912 27.182L240.348 18.0001L256.857 23.68L265.212 32.8529Z" fill="#453A84" stroke="#453A84" stroke-width="1.97408" stroke-miterlimit="10" stroke-linecap="round" stroke-linejoin="round"/>
<ellipse rx="2.18489" ry="6.54694" transform="matrix(0.335255 0.942127 -0.993722 0.111881 236.058 68.9085)" fill="#66543E"/>
<path fill-rule="evenodd" clip-rule="evenodd" d="M231.663 70.8196C233.007 71.1127 234.847 71.1858 236.79 70.9671C240.372 70.5638 242.952 69.3207 242.567 68.1867C241.223 67.8936 239.383 67.8205 237.44 68.0393C233.858 68.4425 231.278 69.6856 231.663 70.8196Z" fill="#403528"/>
</g>
<mask id="mask2" mask-type="alpha" maskUnits="userSpaceOnUse" x="0" y="74" width="98" height="99">
<circle cx="48.9124" cy="123.445" r="48.9124" fill="#C4C4C4"/>
</mask>
<g mask="url(#mask2)">
<circle cx="48.9124" cy="123.445" r="48.9124" fill="#FFEEEA"/>
<path d="M14.4988 119.515L15.3493 127.588C15.8803 132.619 11.8157 139.319 11.4963 143.327C10.9373 150.295 16.4553 156.248 23.4426 156.248H33.2647L32.8654 140.173C32.8654 140.173 15.0698 120.086 14.4988 119.515Z" fill="#105DC1" stroke="#105DC1" stroke-width="2.39564" stroke-miterlimit="10" stroke-linecap="round" stroke-linejoin="round"/>
<path d="M81.577 128.299L84.5955 143.236C84.6593 143.551 84.7512 143.863 84.843 144.17C86.4441 149.552 82.4194 155.05 76.7138 155.05H63.5657L56.0234 136.684L81.577 128.299Z" fill="#105DC1" stroke="#105DC1" stroke-width="2.39564" stroke-miterlimit="10" stroke-linecap="round" stroke-linejoin="round"/>
<path d="M85.1141 117.918C85.1141 137.985 62.9184 151.057 43.4179 151.057C23.9174 151.057 14.4985 137.985 14.4985 117.918C14.4985 97.85 30.3058 81.5836 49.8063 81.5836C69.3068 81.5836 85.1141 97.85 85.1141 117.918Z" fill="#105DC1" stroke="#105DC1" stroke-width="2.39564" stroke-miterlimit="10" stroke-linecap="round" stroke-linejoin="round"/>
<path d="M76.3857 120.712H80.8616C83.904 120.712 86.3676 123.571 86.3676 127.101C86.3676 130.63 83.9 133.489 80.8616 133.489H74.7886" fill="#EBBE89"/>
<path d="M56.5779 160.953L59.2173 171.82H33.6638L32.8652 132.947L29.671 112.156C29.671 98.8006 41.0144 87.9763 55.0049 87.9763C68.9955 87.9763 80.3388 98.8046 80.3388 112.156V138.113C80.3388 148.61 73.5791 157.306 63.8967 160.552C58.5864 162.329 52.7331 160.269 47.6743 157.921C46.3287 157.294 44.9432 156.488 43.6456 155.438" fill="#FFD19B"/>
<path d="M56.5779 160.953L59.2173 171.82H33.6638L32.8652 132.947L29.671 112.156C29.671 98.8006 41.0144 87.9763 55.0049 87.9763C68.9955 87.9763 80.3388 98.8046 80.3388 112.156V138.113C80.3388 148.61 73.5791 157.306 63.8967 160.552C58.5864 162.329 52.7331 160.269 47.6743 157.921C46.3287 157.294 44.9432 156.488 43.6456 155.438" stroke="#FFD19B" stroke-width="2.39564" stroke-miterlimit="10" stroke-linecap="round" stroke-linejoin="round"/>
<path d="M33.6636 120.712H29.1877C26.1453 120.712 23.6818 123.571 23.6818 127.101C23.6818 130.63 26.1493 133.489 29.1877 133.489H37.6563" fill="#FFD19B"/>
<path d="M33.6636 120.712H29.1877C26.1453 120.712 23.6818 123.571 23.6818 127.101C23.6818 130.63 26.1493 133.489 29.1877 133.489H37.6563" stroke="#FFD19B" stroke-width="2.39564" stroke-miterlimit="10" stroke-linecap="round" stroke-linejoin="round"/>
<path d="M30.4699 127.5H35.6605" stroke="black" stroke-opacity="0.6" stroke-width="2.39564" stroke-miterlimit="10" stroke-linecap="round" stroke-linejoin="round"/>
<path d="M28.4731 103.943L26.876 118.716H48.4368L48.836 99.1518L54.0266 118.716H66.4041C66.4041 118.716 69.5983 103.544 62.8106 98.3532C62.8106 98.3532 74.3895 104.742 71.9939 118.716H80.7779L81.4106 101.723L70.0898 88.9411L50.4331 83.9794L32.4658 93.5619L28.4731 103.943Z" fill="#105DC1" stroke="#105DC1" stroke-width="2.39564" stroke-miterlimit="10" stroke-linecap="round" stroke-linejoin="round"/>
<path d="M51.3054 126.302V130.295" stroke="black" stroke-opacity="0.6" stroke-width="3.99274" stroke-miterlimit="10" stroke-linecap="round" stroke-linejoin="round"/>
<path d="M72.0676 126.302V130.295" stroke="black" stroke-opacity="0.6" stroke-width="3.99274" stroke-miterlimit="10" stroke-linecap="round" stroke-linejoin="round"/>
<path d="M54.5873 145.867L54.759 146.038C58.7637 150.043 65.2799 149.963 69.1848 145.867" stroke="black" stroke-opacity="0.6" stroke-width="2.39564" stroke-miterlimit="10" stroke-linecap="round" stroke-linejoin="round"/>
<path d="M63.6829 134.288L65.6793 137.881" stroke="black" stroke-opacity="0.6" stroke-width="2.39564" stroke-miterlimit="10" stroke-linecap="round" stroke-linejoin="round"/>
<path d="M42.3358 155.77C42.3358 155.77 49.2744 161.613 58.039 162.344L59.8649 169.648C54.1855 170.521 48.5787 167.689 45.9124 162.598L42.3358 155.77Z" fill="#EBBE89"/>
</g>
<circle cx="146.271" cy="122.048" r="3.72666" fill="#0DE3B0"/>
</svg>
