<?xml version="1.0" encoding="utf-8"?>
<!-- Generator: Adobe Illustrator 16.0.0, SVG Export Plug-In . SVG Version: 6.00 Build 0)  -->
<!DOCTYPE svg PUBLIC "-//W3C//DTD SVG 1.0//EN" "http://www.w3.org/TR/2001/REC-SVG-20010904/DTD/svg10.dtd">
<svg version="1.0" id="Layer_1" xmlns="http://www.w3.org/2000/svg" xmlns:xlink="http://www.w3.org/1999/xlink" x="0px" y="0px"
	 width="32px" height="32px" viewBox="-5 0.5 32 32" enable-background="new -5 0.5 32 32" xml:space="preserve">
<path d="M7.25,7.502c0.156,0,0.295,0.06,0.415,0.181l8.404,8.402c0.119,0.121,0.18,0.259,0.18,0.416s-0.061,0.295-0.18,0.415
	L7.665,25.32c-0.12,0.119-0.259,0.18-0.415,0.18c-0.156,0-0.295-0.061-0.416-0.18l-0.901-0.903c-0.121-0.12-0.181-0.259-0.181-0.415
	c0-0.155,0.06-0.294,0.181-0.414l7.088-7.088L5.933,9.413C5.812,9.292,5.751,9.154,5.751,8.998s0.06-0.294,0.181-0.415l0.901-0.901
	C6.955,7.56,7.093,7.5,7.25,7.5V7.502z"/>
</svg>
