<?xml version="1.0" encoding="utf-8"?>
<!-- Generated by IcoMoon.io -->
<!DOCTYPE svg PUBLIC "-//W3C//DTD SVG 1.1//EN" "http://www.w3.org/Graphics/SVG/1.1/DTD/svg11.dtd">
<svg version="1.1" xmlns="http://www.w3.org/2000/svg" xmlns:xlink="http://www.w3.org/1999/xlink" width="32" height="32" viewBox="0 0 32 32">
<path fill="rgb(68, 68, 68)" d="M19.019 16.107l6.709-6.709c0.832-0.832 0.832-2.187 0-3.019s-2.187-0.832-3.019 0l-6.709 6.709-6.709-6.699c-0.832-0.832-2.187-0.832-3.019 0s-0.832 2.187 0 3.019l6.709 6.709-6.709 6.709c-0.832 0.832-0.832 2.187 0 3.019 0.416 0.416 0.96 0.629 1.504 0.629s1.088-0.213 1.504-0.629l6.709-6.709 6.709 6.709c0.416 0.416 0.96 0.629 1.504 0.629s1.088-0.213 1.504-0.629c0.832-0.832 0.832-2.187 0-3.019l-6.688-6.72z"></path>
</svg>
