<?xml version="1.0" encoding="utf-8"?>
<!-- Generated by IcoMoon.io -->
<!DOCTYPE svg PUBLIC "-//W3C//DTD SVG 1.1//EN" "http://www.w3.org/Graphics/SVG/1.1/DTD/svg11.dtd">
<svg version="1.1" xmlns="http://www.w3.org/2000/svg" xmlns:xlink="http://www.w3.org/1999/xlink" width="32" height="32" viewBox="0 0 32 32">
<path fill="rgb(68, 68, 68)" d="M27.989 14.475l-9.749-9.749c-0.896-0.896-2.357-0.896-3.253 0s-0.896 2.379 0 3.275l5.824 5.856h-15.157c-1.269 0-2.293 0.971-2.293 2.24s1.024 2.24 2.293 2.24h15.189l-5.845 5.877c-0.896 0.896-0.896 2.368 0 3.264 0.448 0.448 1.035 0.683 1.621 0.683s1.173-0.224 1.621-0.672l9.749-9.739c0.448-0.448 0.672-1.045 0.672-1.643 0.011-0.587-0.213-1.184-0.672-1.632z"></path>
</svg>
