<?xml version="1.0" encoding="utf-8"?>
<!-- Generated by IcoMoon.io -->
<!DOCTYPE svg PUBLIC "-//W3C//DTD SVG 1.1//EN" "http://www.w3.org/Graphics/SVG/1.1/DTD/svg11.dtd">
<svg version="1.1" xmlns="http://www.w3.org/2000/svg" xmlns:xlink="http://www.w3.org/1999/xlink" width="32" height="32" viewBox="0 0 32 32">
<path fill="#444444" d="M17.547 27.989l9.749-9.749c0.896-0.896 0.896-2.357 0-3.253s-2.389-0.896-3.285 0l-5.867 5.824v-15.157c0-1.269-0.971-2.293-2.24-2.293s-2.24 1.024-2.24 2.293v15.189l-5.867-5.845c-0.896-0.896-2.357-0.896-3.264 0-0.448 0.448-0.683 1.035-0.683 1.621s0.224 1.173 0.672 1.621l9.739 9.749c0.448 0.448 1.045 0.672 1.643 0.672s1.184-0.224 1.643-0.672z"></path>
</svg>
