<?xml version="1.0" encoding="utf-8"?>
<!-- Generator: Adobe Illustrator 19.2.0, SVG Export Plug-In . SVG Version: 6.00 Build 0)  -->
<svg version="1.1" id="Layer_1" xmlns="http://www.w3.org/2000/svg" xmlns:xlink="http://www.w3.org/1999/xlink" x="0px" y="0px"
	 viewBox="0 0 32 32" style="enable-background:new 0 0 32 32;" xml:space="preserve">
<style type="text/css">
	.st0{fill:#444444;}
</style>
<path class="st0" d="M4,17.7l9.7,9.7c0.9,0.9,2.4,0.9,3.3,0s0.9-2.4,0-3.3l-5.8-5.9h15.2c1.3,0,2.3-1,2.3-2.2s-1-2.2-2.3-2.2H11.2
	L17,8c0.9-0.9,0.9-2.4,0-3.3c-0.4-0.4-1-0.7-1.6-0.7s-1.2,0.2-1.6,0.7L4,14.5c-0.4,0.4-0.7,1-0.7,1.6C3.4,16.7,3.6,17.3,4,17.7z"/>
</svg>
