<?xml version="1.0" encoding="utf-8"?>
<!-- Generated by IcoMoon.io -->
<!DOCTYPE svg PUBLIC "-//W3C//DTD SVG 1.1//EN" "http://www.w3.org/Graphics/SVG/1.1/DTD/svg11.dtd">
<svg version="1.1" xmlns="http://www.w3.org/2000/svg" xmlns:xlink="http://www.w3.org/1999/xlink" width="32" height="32" viewBox="0 0 32 32">
<path fill="rgb(68, 68, 68)" d="M15.989 2.272c-7.541 0-13.653 6.112-13.653 13.653s6.112 13.653 13.653 13.653 13.653-6.112 13.653-13.653-6.112-13.653-13.653-13.653zM15.989 27.872c-0.64 0-1.28-0.053-1.899-0.149-0.555-0.587-1.077-1.429-1.536-2.485-0.405-0.928-0.747-1.973-1.003-3.104 1.408-0.16 2.912-0.235 4.448-0.235 1.547 0 3.040 0.085 4.448 0.235-0.267 1.131-0.597 2.176-1.003 3.104-0.459 1.056-0.981 1.888-1.536 2.485-0.64 0.096-1.269 0.149-1.92 0.149zM15.989 21.045c-1.621 0-3.179 0.085-4.629 0.256-0.299-1.536-0.469-3.211-0.491-4.949h10.229c-0.021 1.739-0.192 3.403-0.491 4.949-1.429-0.171-2.987-0.256-4.619-0.256zM15.989 3.979c0.64 0 1.28 0.053 1.899 0.149 0.555 0.587 1.077 1.429 1.536 2.485 0.405 0.928 0.747 1.973 1.003 3.104-1.408 0.16-2.912 0.235-4.448 0.235-1.547 0-3.040-0.085-4.448-0.235 0.267-1.131 0.597-2.176 1.003-3.104 0.459-1.056 0.981-1.888 1.536-2.485 0.651-0.107 1.28-0.149 1.92-0.149zM15.989 10.805c1.621 0 3.179-0.085 4.629-0.256 0.299 1.536 0.469 3.211 0.491 4.949h-10.229c0.021-1.739 0.192-3.403 0.491-4.949 1.44 0.16 2.997 0.256 4.619 0.256zM21.963 15.499c-0.021-1.792-0.203-3.499-0.501-5.056 1.739-0.235 3.285-0.587 4.555-1.024 1.173 1.803 1.835 3.883 1.909 6.069h-5.963zM10.027 15.499h-5.973c0.075-2.187 0.736-4.267 1.909-6.069 1.269 0.427 2.816 0.779 4.555 1.024-0.299 1.547-0.469 3.253-0.491 5.045zM10.027 16.352c0.021 1.792 0.203 3.499 0.501 5.056-1.739 0.235-3.285 0.587-4.555 1.024-1.173-1.803-1.835-3.883-1.909-6.069h5.963zM21.963 16.352h5.973c-0.075 2.187-0.736 4.267-1.909 6.069-1.269-0.427-2.816-0.779-4.555-1.024 0.288-1.557 0.469-3.253 0.491-5.045zM25.504 8.693c-0.043 0.011-0.085 0.032-0.128 0.043-1.195 0.373-2.581 0.661-4.085 0.875-0.48-2.123-1.205-3.915-2.080-5.195 1.963 0.544 3.755 1.589 5.237 3.061 0.373 0.384 0.736 0.789 1.056 1.216zM12.779 4.405c-0.875 1.28-1.6 3.072-2.080 5.195-1.504-0.203-2.891-0.501-4.085-0.875-0.043-0.011-0.085-0.032-0.128-0.043 0.331-0.427 0.683-0.832 1.067-1.216 1.472-1.472 3.264-2.517 5.227-3.061zM6.475 23.147c0.043-0.011 0.085-0.032 0.128-0.043 1.195-0.373 2.581-0.661 4.085-0.875 0.48 2.123 1.205 3.915 2.080 5.195-1.963-0.544-3.755-1.589-5.237-3.061-0.373-0.384-0.725-0.789-1.056-1.216zM19.211 27.435c0.875-1.28 1.6-3.072 2.080-5.195 1.504 0.203 2.891 0.501 4.085 0.875 0.043 0.011 0.085 0.032 0.128 0.043-0.331 0.427-0.683 0.832-1.067 1.216-1.472 1.472-3.275 2.517-5.227 3.061z"></path>
</svg>
