<?xml version="1.0" encoding="UTF-8"?>
<svg width="168px" height="30px" viewBox="0 0 168 30" version="1.1" xmlns="http://www.w3.org/2000/svg" xmlns:xlink="http://www.w3.org/1999/xlink">
    <!-- Generator: Sketch 52.5 (67469) - http://www.bohemiancoding.com/sketch -->
    <title>logo_outstanding</title>
    <desc>Created with Sketch.</desc>
    <g id="logo_outstanding" stroke="none" stroke-width="1" fill="none" fill-rule="evenodd">
        <g id="Group" fill="#231F20">
            <path d="M42.2176166,21.9402985 C40.4581876,21.9323251 38.7756429,21.1974581 37.5480029,19.9008015 C36.3203629,18.6041449 35.6505741,16.8544328 35.6891192,15.0447761 C35.6276835,12.5901706 36.8654488,10.2944827 38.922091,9.04857115 C40.9787333,7.80265958 43.5304895,7.80265958 45.5871318,9.04857115 C47.643774,10.2944827 48.8815393,12.5901706 48.8201036,15.0447761 C48.854105,16.8662044 48.1726786,18.6247724 46.9299951,19.9226093 C45.6873117,21.2204463 43.9883938,21.9478684 42.2176166,21.9402985 Z M42.2524352,9.1119403 C39.1405181,9.1119403 36.7032124,11.6955224 36.7032124,15.0447761 C36.7032124,18.3940299 39.1709845,20.9776119 42.2611399,20.9776119 C45.3512953,20.9776119 47.7711917,18.3985075 47.7711917,15.0492537 C47.7711917,11.7 45.373057,9.11641791 42.2611399,9.11641791 L42.2524352,9.1119403 Z" id="Shape" fill-rule="nonzero"></path>
            <path d="M61.7465285,8.32835821 L61.7465285,15.6716418 C61.7465285,20.2835821 59.0698446,21.9402985 56.5237306,21.9402985 C53.7425907,21.9402985 51.357513,19.9343284 51.357513,15.8955224 L51.357513,8.32835821 L52.3237306,8.32835821 L52.3237306,15.8552239 C52.3237306,19.3835821 54.3258031,20.9776119 56.5411399,20.9776119 C58.6520207,20.9776119 60.7803109,19.5402985 60.7803109,15.7164179 L60.7803109,8.32835821 L61.7465285,8.32835821 Z" id="Path"></path>
            <polygon id="Path" points="74.1550259 9.19701493 69.4980311 9.19701493 69.4980311 21.7656716 68.5318135 21.7656716 68.5318135 9.19701493 63.8748187 9.19701493 63.8748187 8.32835821 74.1550259 8.32835821"></polygon>
            <path d="M82.411399,10.141791 C81.1405181,9.35373134 80.4833161,9.11641791 79.6302591,9.11641791 C78.950148,9.0859615 78.2873251,9.34185732 77.794599,9.8251107 C77.3018728,10.3083641 77.0217679,10.9772679 77.0188601,11.6776119 C77.0188601,15.2597015 82.9293264,13.5492537 82.9293264,18.2597015 C82.9364802,19.2435514 82.5576469,20.1887909 81.8785448,20.8815414 C81.1994427,21.5742919 80.277471,21.9560006 79.3212435,21.9402985 C78.1661542,21.8939078 77.0533042,21.4809992 76.1353368,20.758209 L76.1353368,19.5402985 C77.5193782,20.6238806 78.3115026,20.9776119 79.2646632,20.9776119 C79.9604682,20.9885985 80.6309106,20.7090797 81.1229769,20.2028494 C81.6150433,19.6966191 81.8867414,19.0068782 81.8760622,18.2910448 C81.8760622,14.4671642 75.9655959,16.141791 75.9655959,11.7089552 C75.9724396,10.746296 76.3528505,9.82634861 77.0222446,9.15366257 C77.6916387,8.48097653 78.5945278,8.11131275 79.5301554,8.12686567 C80.5440795,8.1390516 81.5361893,8.43133361 82.4026943,8.97313433 L82.411399,10.141791 Z" id="Path"></path>
            <polygon id="Path" points="94.9287047 9.19701493 90.2717098 9.19701493 90.2717098 21.7656716 89.3098446 21.7656716 89.3098446 9.19701493 84.6528497 9.19701493 84.6528497 8.32835821 94.9287047 8.32835821"></polygon>
            <polygon id="Path" points="95.1680829 21.7656716 94.1670466 21.7656716 99.8990674 8.22985075 100.425699 8.22985075 106.15772 21.7656716 105.156684 21.7656716 100.151503 9.92686567"></polygon>
            <polygon id="Path" points="119.745699 21.7656716 118.94487 21.7656716 109.522073 10.0253731 109.522073 21.7656716 108.560207 21.7656716 108.560207 8.33283582 109.378446 8.33283582 118.783834 20.0776119 118.783834 8.32835821 119.745699 8.32835821"></polygon>
            <path d="M127.862798,8.32835821 C133.137824,8.32835821 134.626321,12.0940299 134.626321,15.0447761 C134.626321,18.1791045 132.937617,21.761194 128.023834,21.761194 L123.514819,21.761194 L123.514819,8.32835821 L127.862798,8.32835821 Z M124.476684,20.9014925 L127.958549,20.9014925 C130.939896,20.9014925 133.577409,18.8328358 133.577409,15.0492537 C133.577409,11.6014925 131.266321,9.19701493 127.919378,9.19701493 L124.476684,9.19701493 L124.476684,20.9014925 Z" id="Shape" fill-rule="nonzero"></path>
            <polygon id="Path" points="138.839378 21.7656716 137.877513 21.7656716 137.877513 8.33283582 138.839378 8.33283582"></polygon>
            <polygon id="Path" points="153.746114 21.7656716 152.949637 21.7656716 143.526839 10.0253731 143.526839 21.7656716 142.560622 21.7656716 142.560622 8.33283582 143.37886 8.33283582 152.766839 20.0731343 152.766839 8.32835821 153.728705 8.32835821"></polygon>
            <path d="M167.464663,10.4776119 C166.148742,9.61566413 164.624381,9.1503112 163.064456,9.13432836 C159.91772,9.13432836 157.589223,11.6552239 157.589223,15.0671642 C157.589223,18.080597 159.425907,20.9955224 163.338653,20.9955224 C164.52397,21.0223882 165.695597,20.730696 166.737824,20.1492537 L166.737824,16.5223881 L164.126425,16.5223881 L164.126425,15.6716418 L167.712746,15.6716418 L167.712746,20.8029851 C166.34902,21.5337458 164.837021,21.9233932 163.299482,21.9402985 C161.497028,21.9887794 159.754281,21.2737728 158.478907,19.9625338 C157.203533,18.6512948 156.507407,16.8588455 156.553368,15.0044776 C156.499774,13.1711996 157.184128,11.3964664 158.444751,10.099557 C159.705374,8.80264754 161.430451,8.09859508 163.212435,8.15373134 C164.613886,8.15373134 165.723731,8.44925373 167.469016,9.29552239 L167.464663,10.4776119 Z" id="Path"></path>
            <path d="M15.9948187,29.4402985 L15.9948187,28.9925373 C15.9925747,28.8408611 16.0976961,28.709946 16.2429016,28.6835821 C21.0217617,27.6089552 24.6733679,21.9402985 24.6733679,15.0492537 C24.6733679,8.15820896 21,2.45373134 16.1993782,1.41940299 C16.0807731,1.39232824 15.9959836,1.28468261 15.9948187,1.15970149 L15.9948187,0.640298507 C15.9913268,0.584122723 16.0130789,0.529403941 16.053833,0.491844179 C16.0945871,0.454284417 16.1498378,0.438035869 16.2037306,0.447761194 C23.546114,1.2358209 29.2607254,7.47313433 29.2607254,15.0492537 C29.2607254,22.6253731 23.559171,28.8447761 16.2298446,29.6462687 C16.1705105,29.6606875 16.1080485,29.6451795 16.0616379,29.6045065 C16.0152273,29.5638336 15.9904146,29.5028564 15.9948187,29.4402985 Z" id="Path"></path>
            <path d="M13.2702591,29.4402985 L13.2702591,28.9925373 C13.272503,28.8408611 13.1673817,28.709946 13.0221762,28.6835821 C8.24331606,27.6089552 4.59170984,21.9402985 4.59170984,15.0492537 C4.59170984,8.15820896 8.26943005,2.45373134 13.0569948,1.41940299 C13.1756,1.39232824 13.2603894,1.28468261 13.2615544,1.15970149 L13.2615544,0.640298507 C13.2647729,0.585039768 13.243582,0.531237372 13.2038815,0.493870077 C13.1641809,0.456502782 13.1102102,0.439560933 13.0569948,0.447761194 C5.71896373,1.2358209 -7.10542736e-15,7.47313433 -7.10542736e-15,15.0492537 C-7.10542736e-15,22.6253731 5.70590674,28.8447761 13.0569948,29.6462687 C13.1129876,29.6529371 13.1689923,29.6338888 13.2100877,29.594199 C13.2511831,29.5545091 13.2731951,29.498209 13.2702591,29.4402985 Z" id="Path"></path>
        </g>
    </g>
</svg>