<?xml version="1.0" encoding="utf-8"?>
<!-- Generator: Adobe Illustrator 21.0.1, SVG Export Plug-In . SVG Version: 6.00 Build 0)  -->
<svg version="1.1" id="Layer_1" xmlns="http://www.w3.org/2000/svg" xmlns:xlink="http://www.w3.org/1999/xlink" x="0px" y="0px"
	 viewBox="0 0 197 48" style="enable-background:new 0 0 197 48;" xml:space="preserve">
<path d="M177.6,28.3c2.1,0.9,4.7,1.3,8,1.3c2.8,0,5.3-0.8,7.2-2.1c1.9-1.3,2.8-3.4,2.8-6.3c0-1.1-0.2-2.3-0.4-3.2
	c-0.4-0.9-0.8-1.7-1.5-2.3c-0.8-0.8-1.5-1.3-2.1-1.7c-0.8-0.4-1.7-0.9-3-1.7c-2.7-1.3-4-2.7-4-4c0-0.9,0.6-1.5,0.9-1.7
	c0.6-0.2,1.3-0.4,2.3-0.4c1.7,0,3.2,0.2,4.6,0.6c0.2,0,0.4,0,0.6,0c0.4,0,0.6-0.2,0.8-0.6l0.8-4c0-0.4,0-0.9-0.8-1.1
	c-1.7-0.8-4-1.1-6.6-1.1c-3.4,0-5.9,0.6-7.4,1.9c-1.9,1.3-2.7,3.4-2.7,6.3c0,1.3,0.2,2.5,0.6,3.6c0.4,0.9,0.9,1.9,1.5,2.7
	c0.8,0.8,1.5,1.3,2.1,1.7c0.8,0.4,1.5,0.9,2.7,1.5c1.5,0.8,2.5,1.5,3,1.9c0.6,0.6,0.9,1.1,0.9,1.9c0,1.5-1.5,2.3-4.4,2.3
	c-1.7,0-3.4-0.4-4.9-0.9c-0.2,0-0.4-0.2-0.6-0.2s-0.4,0-0.6,0.8l-0.8,4c-0.2,0.6,0,0.8,0,0.8C176.8,27.9,177.2,28.1,177.6,28.3z
	 M103.8,26.6c0.9,1.1,2.1,1.9,3.4,2.3c1.3,0.6,3,0.8,4.7,0.8c1.9,0,3.4-0.2,4.7-0.8s2.5-1.3,3.4-2.3c0.9-1.1,1.7-2.7,2.3-4.6
	c0.6-1.9,0.8-4.4,0.8-7.2s-0.2-5.3-0.8-7.2S121,4.2,120.1,3s-2.1-1.9-3.4-2.3c-1.3-0.6-3-0.8-4.7-0.8c-1.9,0-3.4,0.2-4.7,0.8
	C106,1.1,104.8,2,103.9,3c-0.9,1.1-1.7,2.7-2.3,4.6s-0.8,4.4-0.8,7.2s0.2,5.3,0.8,7.2C102.1,23.9,102.8,25.4,103.8,26.6z M109.1,8.3
	c0.6-1.3,1.5-1.9,2.8-1.9s2.5,0.8,3,1.9s0.8,3.4,0.8,6.6s-0.2,5.3-0.8,6.5c-0.6,1.3-1.5,1.9-3,1.9c-1.3,0-2.5-0.8-2.8-1.9
	c-0.6-1.1-0.8-3.4-0.8-6.5C108.3,11.6,108.5,9.5,109.1,8.3z M129,26.6c0.9,1.1,2.1,1.9,3.4,2.3c1.3,0.6,3,0.8,4.7,0.8
	c1.9,0,3.4-0.2,4.7-0.8c1.3-0.6,2.5-1.3,3.4-2.3c0.9-1.1,1.7-2.7,2.3-4.6s0.8-4.4,0.8-7.2s-0.2-5.3-0.8-7.2s-1.3-3.4-2.3-4.6
	c-0.9-1.1-2.1-1.9-3.4-2.3c-1.3-0.6-3-0.8-4.7-0.8c-1.9,0-3.4,0.2-4.7,0.8C131.1,1.1,130,2.1,129,3c-0.9,1.1-1.7,2.7-2.3,4.6
	c-0.6,1.9-0.8,4.4-0.8,7.2s0.2,5.3,0.8,7.2C127.3,23.9,128.1,25.4,129,26.6z M134.3,8.3c0.6-1.3,1.5-1.9,2.8-1.9s2.5,0.8,3,1.9
	s0.8,3.4,0.8,6.6s-0.2,5.3-0.8,6.5c-0.6,1.3-1.5,1.9-3,1.9c-1.3,0-2.5-0.8-2.8-1.9c-0.6-1.1-0.8-3.4-0.8-6.5
	C133.6,11.6,133.9,9.5,134.3,8.3z M153.7,29.2h5.5c0.8,0,0.9-0.2,0.9-0.9V16.7v-1.5l0.6,1.3l5.5,11.6c0.4,0.8,0.8,0.9,1.5,0.9h5.9
	c0.4,0,0.6-0.2,0.6-0.2c0-0.2,0.2-0.4-0.2-0.8l-7.2-14.6v-0.2V13l6.8-11.8c0.4-0.2,0.4-0.4,0.2-0.6c0,0-0.2-0.2-0.6-0.2h-5.9
	c-0.6,0-1.1,0.4-1.5,1.1l-5.1,8.9l-0.6,1.1v-1.3V1.3c0-0.8-0.2-0.9-0.9-0.9h-5.5c-0.8,0-0.9,0.2-0.9,0.9v26.9
	C152.7,29,152.9,29.2,153.7,29.2z M39.3,29.2h8.3c4.2,0,7.4-1.1,9.3-3.2c1.9-2.1,2.8-5.9,2.8-11.2s-0.9-8.9-2.8-11.2
	c-1.9-2.1-5.1-3.2-9.3-3.2h-8.3c-0.8,0-0.9,0.2-0.9,0.9v26.9C38.3,29,38.7,29.2,39.3,29.2z M45.9,22.4V7.2V6.8h0.4h1.1
	c1.7,0,3,0.6,3.8,1.7s1.1,3,1.1,6.3c0,3-0.4,5.1-1.1,6.3s-2.1,1.7-3.8,1.7h-1.1h-0.4V22.4z M77.4,29.2h10.2c6.8,0,10.1-2.7,10.1-8.3
	c0-1.7-0.4-3.2-1.1-4.4c-0.8-1.1-1.7-1.9-2.8-2.3L93.3,14l-0.9-0.2l0.8-0.4l0.4-0.2c2.1-0.9,3.2-2.8,3.2-5.7c0-2.7-0.8-4.6-2.3-5.5
	c-1.5-1.1-4.2-1.5-7.8-1.5h-9.5c-0.8,0-0.9,0.2-0.9,0.9v26.9C76.5,29,76.6,29.2,77.4,29.2z M83.7,11.6V6.5V6.3H84h2.7
	c1.1,0,1.9,0.2,2.3,0.6C89.6,7.3,89.8,8,89.8,9c0,0.9-0.2,1.7-0.8,2.3c-0.6,0.4-1.3,0.8-2.3,0.8H84h-0.4
	C83.7,12,83.7,11.6,83.7,11.6z M83.7,23.1v-5.7V17H84h3c1.1,0,1.9,0.2,2.5,0.8c0.6,0.6,0.8,1.3,0.8,2.5c0,1.1-0.2,1.9-0.8,2.5
	c-0.6,0.6-1.3,0.8-2.5,0.8h-3h-0.4L83.7,23.1L83.7,23.1z M194.8,36.6H119c-3.6,0-7.6,0-12,0.9c-3.4,0.6-6.6,2.1-8.9,4.2l-0.2,0.2
	l-0.2-0.2c-2.3-2.1-5.3-3.6-8.9-4.2c-4.4-0.8-12-0.9-12-0.9H0.9c-0.8,0-0.9,0.2-0.9,0.9c0,0.8,0,2.5,0,3.2c0,0.6,0.2,0.9,0.9,0.9
	h76.5c1.7,0,7.4,0,10.6,0.8c4.9,1.1,7.6,4.7,8.2,5.5h3.6c0.6-0.8,3.2-4.4,8.2-5.5c3-0.8,8.7-0.8,11-0.8h75.9c0.8,0,0.9-0.2,0.9-0.9
	v-3.2C195.6,37,195.4,36.6,194.8,36.6z M1.5,29.2H7c0.8,0,1-0.2,1-0.9v-7.6v-0.4h0.4h1.5h0.2v0.2l3.6,7.8c0.4,0.6,0.8,0.9,1.5,0.9
	h5.7c0.4,0,0.6-0.2,0.6-0.2c0-0.2,0-0.6-0.2-0.8l-4.6-8.5l-0.2-0.4l0.4-0.2h0.2c3-1.3,4.6-4.2,4.6-8.5c0-3.8-0.9-6.5-2.7-8
	c-1.5-1.3-4.4-2.3-8.3-2.3H1.5c-0.6,0-0.9,0.4-0.9,0.9v26.9C0.6,29,0.9,29.2,1.5,29.2z M8,14.2V7V6.8h0.4h2.3c1.3,0,2.3,0.4,2.8,0.9
	c0.6,0.6,0.8,1.5,0.8,3c0,1.3-0.2,2.3-0.8,3c-0.6,0.4-1.5,0.8-2.8,0.8H8.3H8V14.2z M27.1,29.2h5.5c0.8,0,0.9-0.2,0.9-0.9v-27
	c0-0.8-0.2-0.9-0.9-0.9h-5.5c-0.8,0-0.9,0.2-0.9,0.9v26.9C26.2,29,26.4,29.2,27.1,29.2z M65.1,29.2h5.5c0.8,0,0.9-0.2,0.9-0.9v-27
	c0-0.8-0.2-0.9-0.9-0.9h-5.5c-0.8,0-0.9,0.2-0.9,0.9v26.9C64.1,29,64.5,29.2,65.1,29.2z"/>
</svg>
