<?xml version="1.0" encoding="utf-8"?>
<!-- Generated by IcoMoon.io -->
<!DOCTYPE svg PUBLIC "-//W3C//DTD SVG 1.1//EN" "http://www.w3.org/Graphics/SVG/1.1/DTD/svg11.dtd">
<svg version="1.1" xmlns="http://www.w3.org/2000/svg" xmlns:xlink="http://www.w3.org/1999/xlink" width="32" height="32" viewBox="0 0 32 32">
<path fill="rgb(68, 68, 68)" d="M16.075 1.632c8.331 0 14.368 6.347 14.368 14.304s-6.037 14.336-14.368 14.336c-8.299 0-14.336-6.379-14.336-14.336s6.037-14.304 14.336-14.304zM18.421 15.477v-0.064c1.643-0.544 2.688-1.461 2.688-3.051 0-2.101-1.835-3.509-5.067-3.509-1.707 0-3.413 0.576-4.48 1.28l0.363 2.315c1.035-0.736 2.475-1.195 3.787-1.195 1.589 0 2.507 0.544 2.507 1.493 0 0.917-1.099 1.675-3.264 1.675h-1.557l0.363 2.219h1.067c2.379 0 3.595 0.576 3.595 1.771 0 1.131-1.003 1.835-2.805 1.835-1.376 0-2.688-0.363-3.872-1.003l-0.395 2.293c1.152 0.651 2.891 1.077 4.544 1.077 3.232 0 5.461-1.429 5.461-4 0-1.611-1.131-2.709-2.933-3.136z"></path>
</svg>
