<?xml version="1.0" encoding="utf-8"?>
<!-- Generated by IcoMoon.io -->
<!DOCTYPE svg PUBLIC "-//W3C//DTD SVG 1.1//EN" "http://www.w3.org/Graphics/SVG/1.1/DTD/svg11.dtd">
<svg version="1.1" xmlns="http://www.w3.org/2000/svg" xmlns:xlink="http://www.w3.org/1999/xlink" width="32" height="32" viewBox="0 0 32 32">
<path fill="rgb(68, 68, 68)" d="M27.051 11.445c0.576-0.608 0.939-1.44 0.939-2.347 0-1.877-1.536-3.413-3.413-3.413s-3.413 1.536-3.413 3.413c0 0.907 0.363 1.739 0.939 2.347-0.32 0.181-0.619 0.395-0.896 0.629-0.565-0.971-1.397-1.771-2.4-2.293 0.917-0.779 1.493-1.941 1.493-3.243 0-2.357-1.909-4.267-4.267-4.267s-4.267 1.909-4.267 4.267c0 1.301 0.576 2.464 1.493 3.243-0.992 0.523-1.824 1.323-2.389 2.293-0.277-0.245-0.576-0.448-0.896-0.629 0.576-0.608 0.939-1.44 0.939-2.347 0-1.877-1.536-3.413-3.413-3.413s-3.413 1.536-3.413 3.413c0 0.907 0.363 1.739 0.939 2.347-1.579 0.875-2.645 2.549-2.645 4.48v3.413c0 0.939 0.768 1.707 1.707 1.707v4.267c0 0.939 0.768 1.707 1.707 1.707h3.413c0.939 0 1.707-0.768 1.707-1.707v-2.795c0.256 0.149 0.544 0.235 0.853 0.235v5.12c0 0.939 0.768 1.707 1.707 1.707h5.12c0.939 0 1.707-0.768 1.707-1.707v-5.12c0.309 0 0.597-0.085 0.853-0.235v2.795c0 0.939 0.768 1.707 1.707 1.707h3.413c0.939 0 1.707-0.768 1.707-1.707v-4.267c0.939 0 1.707-0.768 1.707-1.707v-3.413c0.011-1.931-1.056-3.616-2.635-4.48zM7.509 7.392c0.939 0 1.707 0.768 1.707 1.707s-0.768 1.707-1.707 1.707c-0.939 0-1.707-0.768-1.707-1.707 0-0.949 0.757-1.707 1.707-1.707zM9.216 16.352v8.96h-1.28v-5.973c0-0.235-0.192-0.427-0.427-0.427s-0.427 0.192-0.427 0.427v5.973h-1.28v-8.96c0-0.235-0.192-0.427-0.427-0.427s-0.427 0.192-0.427 0.427v2.987h-0.853v-3.413c0-1.888 1.525-3.413 3.413-3.413 1.099 0 2.069 0.512 2.688 1.312-0.085 0.405-0.128 0.821-0.128 1.248v0.853h-0.427c-0.235 0-0.427 0.181-0.427 0.427zM24.576 7.392c0.939 0 1.707 0.768 1.707 1.707s-0.768 1.707-1.707 1.707c-0.939 0-1.707-0.768-1.707-1.707 0-0.949 0.757-1.707 1.707-1.707zM16.043 3.979c1.419 0 2.56 1.141 2.56 2.56s-1.141 2.56-2.56 2.56-2.56-1.141-2.56-2.56c0-1.419 1.141-2.56 2.56-2.56zM20.309 21.045h-0.853v-5.547c0-0.235-0.192-0.427-0.427-0.427s-0.427 0.192-0.427 0.427v12.373h-2.133v-6.827c0-0.235-0.192-0.427-0.427-0.427s-0.427 0.192-0.427 0.427v6.827h-2.133v-12.373c0-0.235-0.192-0.427-0.427-0.427s-0.427 0.192-0.427 0.427v5.547h-0.853v-5.973c0-2.357 1.909-4.267 4.267-4.267s4.267 1.909 4.267 4.267v5.973zM27.989 19.339h-0.853v-2.987c0-0.235-0.192-0.427-0.427-0.427s-0.427 0.192-0.427 0.427v8.96h-1.28v-5.973c0-0.235-0.192-0.427-0.427-0.427s-0.427 0.192-0.427 0.427v5.973h-1.28v-8.96c0-0.235-0.192-0.427-0.427-0.427h-0.427v-0.853c0-0.427-0.043-0.843-0.128-1.248 0.629-0.8 1.6-1.312 2.688-1.312 1.888 0 3.413 1.525 3.413 3.413v3.413z"></path>
</svg>
