<?xml version="1.0" encoding="utf-8"?>
<!-- Generated by IcoMoon.io -->
<!DOCTYPE svg PUBLIC "-//W3C//DTD SVG 1.1//EN" "http://www.w3.org/Graphics/SVG/1.1/DTD/svg11.dtd">
<svg version="1.1" xmlns="http://www.w3.org/2000/svg" xmlns:xlink="http://www.w3.org/1999/xlink" width="32" height="32" viewBox="0 0 32 32">
<path fill="rgb(68, 68, 68)" d="M16 4.053c3.189 0 6.187 1.248 8.448 3.499 2.251 2.261 3.499 5.259 3.499 8.448s-1.248 6.187-3.499 8.448c-2.261 2.251-5.259 3.499-8.448 3.499s-6.187-1.248-8.448-3.499c-2.251-2.261-3.499-5.259-3.499-8.448s1.248-6.187 3.499-8.448c2.261-2.251 5.259-3.499 8.448-3.499zM16 2.347c-7.541 0-13.653 6.112-13.653 13.653s6.112 13.653 13.653 13.653c7.541 0 13.653-6.112 13.653-13.653s-6.112-13.653-13.653-13.653v0zM13.013 9.173c-0.704 0-1.28 1.141-1.28 2.56s0.576 2.56 1.28 2.56 1.28-1.141 1.28-2.56-0.576-2.56-1.28-2.56zM18.987 9.173c-0.704 0-1.28 1.141-1.28 2.56s0.576 2.56 1.28 2.56 1.28-1.141 1.28-2.56-0.576-2.56-1.28-2.56zM16 24.533c3.040 0 5.803-1.803 7.029-4.587 0.192-0.427 0-0.939-0.437-1.12-0.427-0.192-0.939 0-1.12 0.437-0.96 2.165-3.104 3.563-5.461 3.563-2.368 0-4.512-1.397-5.461-3.563-0.192-0.427-0.693-0.629-1.12-0.437s-0.629 0.693-0.437 1.12c1.205 2.784 3.968 4.587 7.008 4.587v0z"></path>
</svg>
