<?xml version="1.0" encoding="utf-8"?>
<!-- Generated by IcoMoon.io -->
<!DOCTYPE svg PUBLIC "-//W3C//DTD SVG 1.1//EN" "http://www.w3.org/Graphics/SVG/1.1/DTD/svg11.dtd">
<svg version="1.1" xmlns="http://www.w3.org/2000/svg" xmlns:xlink="http://www.w3.org/1999/xlink" width="32" height="32" viewBox="0 0 32 32">
<path fill="rgb(68, 68, 68)" d="M28.949 6.080c-1.781-1.344-3.904-2.048-6.144-2.048-1.611 0-3.221 0.384-4.651 1.12-0.779 0.405-1.515 0.907-2.176 1.493-0.661-0.587-1.387-1.088-2.176-1.493-1.429-0.725-3.040-1.12-4.651-1.12-2.24 0-4.363 0.704-6.144 2.048-0.427 0.32-0.683 0.832-0.683 1.365v17.067c0 0.651 0.363 1.237 0.939 1.525 0.245 0.117 0.501 0.181 0.757 0.181 0.363 0 0.725-0.117 1.024-0.341 1.184-0.896 2.603-1.365 4.096-1.365 2.165 0 4.16 0.992 5.461 2.731 0.32 0.427 0.832 0.683 1.365 0.683s1.045-0.256 1.365-0.683c1.301-1.739 3.296-2.731 5.461-2.731 1.493 0 2.912 0.469 4.096 1.365 0.299 0.224 0.661 0.341 1.024 0.341 0.256 0 0.523-0.064 0.757-0.181 0.576-0.288 0.949-0.885 0.949-1.525v-17.067c0.011-0.544-0.235-1.045-0.672-1.365zM9.152 22.805c-1.92 0-3.691 0.64-5.12 1.707v-17.067c1.429-1.067 3.2-1.707 5.12-1.707 2.549 0 4.832 1.12 6.4 2.891v17.067c-1.557-1.781-3.851-2.891-6.4-2.891zM27.925 24.512c-1.429-1.067-3.2-1.707-5.12-1.707-2.549 0-4.832 1.12-6.4 2.891v-17.067c1.568-1.771 3.851-2.891 6.4-2.891 1.92 0 3.691 0.64 5.12 1.707v17.067z"></path>
</svg>
