<?xml version="1.0" encoding="utf-8"?>
<!-- Generated by IcoMoon.io -->
<!DOCTYPE svg PUBLIC "-//W3C//DTD SVG 1.1//EN" "http://www.w3.org/Graphics/SVG/1.1/DTD/svg11.dtd">
<svg version="1.1" xmlns="http://www.w3.org/2000/svg" xmlns:xlink="http://www.w3.org/1999/xlink" width="32" height="32" viewBox="0 0 32 32">
<path fill="rgb(68, 68, 68)" d="M9.547 5.76c0.725 0 1.312 0.597 1.28 1.333-0.021 0.651-0.565 1.195-1.227 1.227-0.725 0.032-1.333-0.555-1.333-1.28 0-0.704 0.576-1.28 1.28-1.28zM9.547 4.907c-1.216 0-2.197 1.024-2.133 2.251 0.053 1.077 0.939 1.952 2.016 2.016 1.227 0.064 2.251-0.917 2.251-2.133 0-1.173-0.949-2.133-2.133-2.133v0zM22.347 5.76c0.725 0 1.312 0.597 1.28 1.333-0.021 0.661-0.565 1.205-1.227 1.227-0.725 0.032-1.333-0.555-1.333-1.28 0-0.704 0.576-1.28 1.28-1.28zM22.347 4.907c-1.216 0-2.197 1.024-2.133 2.251 0.053 1.077 0.939 1.952 2.016 2.016 1.227 0.064 2.251-0.917 2.251-2.133 0-1.173-0.949-2.133-2.133-2.133v0zM26.187 2.347h-20.48c-1.888 0-3.413 1.525-3.413 3.413v20.48c0 1.888 1.525 3.413 3.413 3.413h20.48c1.888 0 3.413-1.525 3.413-3.413v-20.48c0-1.888-1.525-3.413-3.413-3.413zM5.707 4.053h20.48c0.939 0 1.707 0.768 1.707 1.707v4.267h-23.893v-4.267c0-0.939 0.768-1.707 1.707-1.707zM26.187 27.947h-20.48c-0.939 0-1.707-0.768-1.707-1.707v-15.36h23.893v15.36c0 0.939-0.768 1.707-1.707 1.707z"></path>
<path fill="rgb(68, 68, 68)" d="M22.389 14.72c-0.885-0.661-1.941-1.013-3.051-1.013-0.8 0-1.6 0.192-2.315 0.555-0.384 0.203-0.757 0.448-1.077 0.747-0.331-0.288-0.693-0.544-1.077-0.747-0.715-0.363-1.504-0.555-2.315-0.555-1.109 0-2.165 0.352-3.051 1.013-0.213 0.16-0.341 0.416-0.341 0.683v8.469c0 0.32 0.181 0.619 0.469 0.757 0.117 0.064 0.245 0.085 0.373 0.085 0.181 0 0.363-0.053 0.512-0.171 0.587-0.448 1.291-0.683 2.037-0.683 1.077 0 2.069 0.491 2.709 1.355 0.16 0.213 0.416 0.341 0.683 0.341s0.523-0.128 0.683-0.341c0.651-0.864 1.632-1.355 2.709-1.355 0.736 0 1.44 0.235 2.037 0.683 0.149 0.117 0.331 0.171 0.512 0.171 0.128 0 0.256-0.032 0.373-0.085 0.288-0.139 0.469-0.437 0.469-0.757v-8.469c0-0.267-0.128-0.523-0.341-0.683zM12.565 23.029c-0.949 0-1.835 0.32-2.539 0.843v-8.469c0.704-0.533 1.589-0.843 2.539-0.843 1.269 0 2.4 0.555 3.179 1.44v8.469c-0.779-0.885-1.92-1.44-3.179-1.44zM21.888 23.872c-0.704-0.533-1.589-0.843-2.539-0.843-1.269 0-2.4 0.555-3.179 1.44v-8.469c0.779-0.875 1.909-1.44 3.179-1.44 0.949 0 1.835 0.32 2.539 0.843v8.469z"></path>
</svg>
