<?xml version="1.0" encoding="utf-8"?>
<!-- Generated by IcoMoon.io -->
<!DOCTYPE svg PUBLIC "-//W3C//DTD SVG 1.1//EN" "http://www.w3.org/Graphics/SVG/1.1/DTD/svg11.dtd">
<svg version="1.1" xmlns="http://www.w3.org/2000/svg" xmlns:xlink="http://www.w3.org/1999/xlink" width="32" height="32" viewBox="0 0 32 32">
<path fill="rgb(68, 68, 68)" d="M21.856 9.6l3.413 5.973c0.149 0.267 0.149 0.587 0 0.853s-0.437 0.427-0.736 0.427h-3.413v1.707c0 0.469-0.384 0.853-0.853 0.853h-8.533c-0.469 0-0.853-0.384-0.853-0.853v-1.707h-3.413c-0.309 0-0.587-0.16-0.736-0.427s-0.149-0.587 0-0.853l3.413-5.973c0.149-0.267 0.437-0.427 0.736-0.427h2.56v0.853h-2.56l-3.413 5.973h4.267v2.56h8.533v-2.56h4.267l-3.413-5.973h-2.56v-0.853h2.56c0.309 0 0.587 0.16 0.736 0.427zM29.653 16v8.533c0 0.939-0.768 1.707-1.707 1.707h-23.893c-0.939 0-1.707-0.768-1.707-1.707v-8.533c0-0.309 0.085-0.608 0.245-0.875l5.12-8.533c0.309-0.523 0.864-0.832 1.461-0.832h13.653c0.597 0 1.152 0.309 1.461 0.832l5.12 8.533c0.16 0.267 0.245 0.565 0.245 0.875zM27.947 16l-5.12-8.533h-13.653l-5.12 8.533v8.533h23.893v-8.533zM11.979 11.979c0.171-0.171 0.384-0.245 0.608-0.245 0.213 0 0.437 0.085 0.608 0.245l1.952 1.952v-4.757c0-0.469 0.384-0.853 0.853-0.853s0.853 0.384 0.853 0.853v4.768l1.952-1.952c0.331-0.331 0.875-0.331 1.205 0s0.331 0.875 0 1.205l-3.413 3.413c-0.331 0.331-0.875 0.331-1.205 0l-3.413-3.413c-0.331-0.341-0.331-0.875 0-1.216z"></path>
</svg>
