<?xml version="1.0" encoding="utf-8"?>
<!-- Generated by IcoMoon.io -->
<!DOCTYPE svg PUBLIC "-//W3C//DTD SVG 1.1//EN" "http://www.w3.org/Graphics/SVG/1.1/DTD/svg11.dtd">
<svg version="1.1" xmlns="http://www.w3.org/2000/svg" xmlns:xlink="http://www.w3.org/1999/xlink" width="32" height="32" viewBox="0 0 32 32">
<path fill="rgb(68, 68, 68)" d="M22.752 4.053c0.939 0 1.707 0.768 1.707 1.707v20.48c0 0.939-0.768 1.707-1.707 1.707h-13.653c-0.939 0-1.707-0.768-1.707-1.707v-20.48c0-0.939 0.768-1.707 1.707-1.707h13.653zM22.752 2.347h-13.653c-1.877 0-3.413 1.536-3.413 3.413v20.48c0 1.877 1.536 3.413 3.413 3.413h13.653c1.877 0 3.413-1.536 3.413-3.413v-20.48c0-1.888-1.525-3.413-3.413-3.413v0zM21.899 6.613v7.68h-11.947v-7.68h11.947zM21.899 5.76h-11.947c-0.469 0-0.853 0.384-0.853 0.853v7.68c0 0.469 0.384 0.853 0.853 0.853h11.947c0.469 0 0.853-0.384 0.853-0.853v-7.68c0-0.469-0.373-0.853-0.853-0.853v0zM17.632 8.32v1.707h-3.413v-1.707h3.413zM17.632 7.467h-3.413c-0.469 0-0.853 0.384-0.853 0.853v1.707c0 0.469 0.384 0.853 0.853 0.853h3.413c0.469 0 0.853-0.384 0.853-0.853v-1.707c0-0.469-0.373-0.853-0.853-0.853v0zM17.632 19.413v1.707h-3.413v-1.707h3.413zM17.632 18.56h-3.413c-0.469 0-0.853 0.384-0.853 0.853v1.707c0 0.469 0.384 0.853 0.853 0.853h3.413c0.469 0 0.853-0.384 0.853-0.853v-1.707c0-0.469-0.373-0.853-0.853-0.853v0zM21.899 17.707v7.68h-11.947v-7.68h11.947zM21.899 16.853h-11.947c-0.469 0-0.853 0.384-0.853 0.853v7.68c0 0.469 0.384 0.853 0.853 0.853h11.947c0.469 0 0.853-0.384 0.853-0.853v-7.68c0-0.469-0.373-0.853-0.853-0.853v0z"></path>
</svg>
