<?xml version="1.0" encoding="utf-8"?>
<!-- Generator: Adobe Illustrator 21.0.1, SVG Export Plug-In . SVG Version: 6.00 Build 0)  -->
<svg version="1.1" id="Layer_1" xmlns="http://www.w3.org/2000/svg" xmlns:xlink="http://www.w3.org/1999/xlink" x="0px" y="0px"
	 viewBox="0 0 187 48" style="enable-background:new 0 0 187 48;" xml:space="preserve">
<path d="M18,0H0v48h4.1V3.7h13.5C24,3.7,28.2,7.9,28.2,14c0,6-4.2,10.3-10.6,10.3H8.1L8.2,28H18c9.2,0,14.4-6.5,14.4-14S27.2,0,18,0
	z M48.5,0L28.8,48h4.7l4.7-11.8H60l-1.4-3.7h-19L51,4.4L68.4,48h4.7L53.7,0H48.5z M95.1,0H77v48h4.1V3.7h13.5
	c6.4,0,10.6,4.2,10.6,10.3c0,6-4.2,10.3-10.6,10.3h-9.5V28H95c9.2,0,14.4-6.5,14.4-14C109.5,6.5,104.3,0,95.1,0z M114.9,48h30.5
	v-3.7H119v-19h25.8v-3.7H119V3.8h26.4V0.1h-30.5L114.9,48L114.9,48z M171.5,27.8c7.2-0.3,13.3-5.1,13.3-13.8c0-8.8-6.3-14-14.6-14
	h-17.9v48h4.1V3.7h13.5c6.4,0,10.6,4.2,10.6,10.3s-4.2,10.4-10.6,10.4h-10.3l0.1,3.7h7.3L180.4,48h4.9L171.5,27.8z"/>
</svg>
