<?xml version="1.0" encoding="utf-8"?>
<!-- Generator: Adobe Illustrator 16.0.0, SVG Export Plug-In . SVG Version: 6.00 Build 0)  -->
<!DOCTYPE svg PUBLIC "-//W3C//DTD SVG 1.1//EN" "http://www.w3.org/Graphics/SVG/1.1/DTD/svg11.dtd">
<svg version="1.1" id="Layer_1" xmlns="http://www.w3.org/2000/svg" xmlns:xlink="http://www.w3.org/1999/xlink" x="0px" y="0px"
	 width="30px" height="30px" viewBox="0 0 30 30" enable-background="new 0 0 30 30" xml:space="preserve">
<path d="M46.104,28.129c0,0-0.633-1.789-3.438-2.453c-1.706-0.404-4.961-0.371-5.073-0.371H2.204C2.094,25.305,2,25.215,2,25.1
	v-0.918c0-0.115,0.094-0.209,0.204-0.209h35.417c1.713,0,3.354,0.037,5.255,0.388c2.905,0.543,4.1,2.167,4.137,2.167h-0.024
	c0.035,0,1.229-1.625,4.137-2.167c1.898-0.351,3.542-0.388,5.25-0.388h35.42c0.111,0,0.205,0.094,0.205,0.209V25.1
	c0,0.115-0.094,0.207-0.205,0.207H56.406c-0.112,0-3.367-0.035-5.072,0.369c-2.811,0.662-3.439,2.453-3.439,2.453H46.104z"/>
<path d="M5.909,20.273c0,0.287-0.157,0.428-0.463,0.428h-2.74c-0.268,0-0.402-0.141-0.402-0.428V2.647
	c0-0.289,0.144-0.434,0.431-0.434h4.624c0.531,0,1.038,0.104,1.511,0.31c0.471,0.206,0.882,0.484,1.231,0.829
	c0.349,0.354,0.628,0.762,0.833,1.237c0.205,0.474,0.307,0.975,0.307,1.509v3.791c0,0.761-0.228,1.444-0.677,2.049
	c-0.451,0.606-0.997,1.074-1.635,1.401l2.931,6.936c0.061,0.288-0.043,0.428-0.311,0.428H8.744c-0.124,0-0.244-0.038-0.353-0.121
	c-0.116-0.08-0.19-0.184-0.234-0.306l-2.249-5.699v5.699L5.909,20.273z M5.909,10.473h0.984c0.206,0,0.378-0.072,0.525-0.215
	c0.143-0.145,0.217-0.319,0.217-0.523V6.249c0-0.2-0.075-0.377-0.217-0.52C7.272,5.584,7.099,5.512,6.894,5.512H5.909V10.473
	L5.909,10.473z"/>
<path d="M17.499,20.273c0,0.287-0.146,0.428-0.435,0.428h-2.743c-0.286,0-0.431-0.141-0.431-0.428V2.647
	c0-0.289,0.145-0.434,0.431-0.434h2.743c0.288,0,0.435,0.145,0.435,0.434V20.273z"/>
<path d="M25.322,2.214c0.535,0,1.037,0.104,1.51,0.31c0.471,0.206,0.883,0.484,1.232,0.829c0.348,0.354,0.629,0.762,0.834,1.237
	c0.203,0.474,0.305,0.975,0.305,1.509v10.725c0,0.531-0.104,1.038-0.305,1.509c-0.205,0.474-0.486,0.886-0.834,1.233
	c-0.35,0.347-0.762,0.627-1.232,0.832c-0.475,0.203-0.975,0.306-1.51,0.306h-4.621c-0.291,0-0.434-0.14-0.434-0.428V2.648
	c0-0.289,0.143-0.434,0.434-0.434H25.322L25.322,2.214z M25.6,6.249c0-0.2-0.072-0.377-0.216-0.52
	c-0.144-0.146-0.319-0.217-0.521-0.217h-0.988v11.895h0.988c0.203,0,0.379-0.069,0.521-0.214c0.144-0.145,0.216-0.319,0.216-0.526
	V6.249L25.6,6.249z"/>
<path d="M35.275,20.273c0,0.287-0.144,0.428-0.43,0.428h-2.742c-0.291,0-0.431-0.141-0.431-0.428V2.647
	c0-0.289,0.14-0.434,0.431-0.434h2.742c0.286,0,0.43,0.145,0.43,0.434V20.273z"/>
<path d="M46.125,11.981c0.289,0.293,0.504,0.629,0.646,1.018c0.146,0.39,0.217,0.822,0.217,1.297v2.525
	c0,0.53-0.104,1.038-0.312,1.51c-0.203,0.474-0.481,0.884-0.829,1.233c-0.352,0.348-0.762,0.628-1.234,0.832
	c-0.474,0.203-0.974,0.305-1.51,0.305h-4.529c-0.125,0-0.244-0.011-0.354-0.043c-0.117-0.032-0.17-0.159-0.17-0.385V2.646
	c0-0.289,0.145-0.433,0.432-0.433h4.623c0.536,0,1.037,0.104,1.51,0.309c0.474,0.206,0.883,0.484,1.234,0.829
	c0.348,0.354,0.626,0.762,0.829,1.237c0.207,0.474,0.312,0.975,0.312,1.51v2.033c0,0.944-0.289,1.735-0.864,2.374
	c-0.308,0.325-0.679,0.594-1.111,0.801C45.468,11.47,45.837,11.694,46.125,11.981L46.125,11.981z M43.385,6.249
	c0-0.2-0.075-0.377-0.218-0.52c-0.146-0.146-0.318-0.217-0.526-0.217h-0.986v4.19h0.986c0.208,0,0.381-0.071,0.526-0.215
	c0.142-0.142,0.218-0.317,0.218-0.523V6.249L43.385,6.249z M43.385,13.803c0-0.204-0.075-0.383-0.218-0.522
	c-0.146-0.145-0.318-0.218-0.526-0.218h-0.986v4.345h0.986c0.208,0,0.381-0.07,0.526-0.215c0.142-0.146,0.218-0.32,0.218-0.526
	V13.803z"/>
<path d="M57.925,17.035c0,0.536-0.103,1.041-0.308,1.514c-0.203,0.471-0.483,0.885-0.832,1.23c-0.35,0.35-0.76,0.626-1.23,0.832
	c-0.475,0.206-0.977,0.307-1.51,0.307h-1.174c-0.532,0-1.037-0.102-1.51-0.307c-0.475-0.206-0.884-0.482-1.23-0.832
	c-0.354-0.348-0.63-0.762-0.835-1.23c-0.203-0.473-0.31-0.977-0.31-1.514V5.882c0-0.535,0.105-1.037,0.31-1.51
	c0.205-0.472,0.481-0.881,0.835-1.232c0.347-0.351,0.757-0.627,1.23-0.833C51.834,2.101,52.338,2,52.871,2h1.174
	c0.531,0,1.035,0.101,1.51,0.307c0.473,0.207,0.881,0.483,1.23,0.833c0.349,0.351,0.629,0.761,0.832,1.232
	c0.205,0.473,0.308,0.975,0.308,1.51V17.035z M54.322,6.035c0-0.205-0.074-0.378-0.217-0.522c-0.146-0.145-0.32-0.216-0.523-0.216
	h-0.247c-0.206,0-0.382,0.07-0.523,0.216c-0.145,0.145-0.218,0.318-0.218,0.522v10.848c0,0.205,0.073,0.383,0.218,0.523
	c0.144,0.145,0.317,0.217,0.523,0.217h0.247c0.203,0,0.377-0.074,0.523-0.217c0.143-0.143,0.217-0.318,0.217-0.523V6.035z"/>
<path d="M69.019,17.035c0,0.536-0.103,1.041-0.307,1.514c-0.207,0.471-0.485,0.885-0.834,1.23c-0.349,0.35-0.759,0.626-1.231,0.832
	c-0.475,0.206-0.977,0.307-1.511,0.307h-1.172c-0.534,0-1.037-0.102-1.511-0.307c-0.475-0.206-0.883-0.482-1.233-0.832
	c-0.347-0.348-0.625-0.762-0.828-1.23c-0.209-0.473-0.309-0.977-0.309-1.514V5.882c0-0.535,0.1-1.037,0.309-1.51
	C60.596,3.9,60.873,3.491,61.22,3.14c0.353-0.351,0.761-0.627,1.233-0.833C62.927,2.101,63.43,2,63.964,2h1.172
	c0.534,0,1.036,0.101,1.511,0.307c0.475,0.207,0.885,0.483,1.231,0.833c0.349,0.351,0.626,0.761,0.834,1.232
	c0.204,0.473,0.307,0.975,0.307,1.51V17.035z M65.414,6.035c0-0.205-0.07-0.378-0.217-0.522c-0.143-0.145-0.317-0.216-0.523-0.216
	h-0.245c-0.207,0-0.383,0.07-0.526,0.216c-0.139,0.145-0.213,0.318-0.213,0.522v10.848c0,0.205,0.074,0.383,0.213,0.523
	c0.146,0.145,0.319,0.217,0.526,0.217h0.245c0.206,0,0.382-0.074,0.523-0.217c0.146-0.143,0.217-0.318,0.217-0.523V6.035z"/>
<path d="M81.838,2.354c0.042,0.094,0.042,0.188,0,0.293l-4.189,7.858l4.133,9.767c0.037,0.103,0.026,0.198-0.035,0.293
	c-0.059,0.092-0.153,0.135-0.274,0.135H78.42c-0.123,0-0.238-0.032-0.338-0.104c-0.105-0.07-0.176-0.157-0.217-0.264l-2.25-5.113
	l-0.524,0.985v4.067c0,0.287-0.142,0.428-0.431,0.428h-2.746c-0.287,0-0.43-0.141-0.43-0.428V2.646c0-0.289,0.143-0.433,0.43-0.433
	h2.744c0.289,0,0.432,0.144,0.432,0.433v5.392l2.835-5.454c0.104-0.248,0.299-0.37,0.586-0.37h3.079
	C81.712,2.214,81.798,2.261,81.838,2.354L81.838,2.354z"/>
<path d="M89.542,2.306c0.473,0.207,0.882,0.483,1.233,0.833c0.348,0.351,0.629,0.761,0.832,1.232
	c0.203,0.473,0.309,0.975,0.309,1.51v1.173c0,0.286-0.135,0.473-0.4,0.554l-2.807,0.739c-0.266,0.084-0.4-0.021-0.4-0.308V6.036
	c0-0.205-0.07-0.378-0.216-0.522c-0.142-0.145-0.319-0.216-0.522-0.216h-0.246c-0.207,0-0.379,0.07-0.523,0.216
	c-0.146,0.145-0.216,0.318-0.216,0.522v1.881c0.02,0.227,0.062,0.422,0.124,0.586c0.058,0.165,0.174,0.329,0.338,0.493l4.035,3.018
	c0.326,0.29,0.539,0.583,0.635,0.879c0.09,0.299,0.156,0.633,0.197,1.004v3.141c0,0.536-0.104,1.041-0.307,1.513
	c-0.205,0.473-0.484,0.885-0.832,1.231c-0.353,0.351-0.763,0.626-1.233,0.832c-0.474,0.206-0.978,0.308-1.511,0.308h-1.172
	c-0.533,0-1.037-0.103-1.511-0.308c-0.476-0.206-0.883-0.483-1.231-0.832c-0.354-0.347-0.629-0.76-0.834-1.231
	s-0.306-0.977-0.306-1.513v-1.726c0-0.285,0.132-0.471,0.396-0.553l2.806-0.74c0.269-0.084,0.403,0.021,0.403,0.309v2.559
	c0,0.205,0.07,0.381,0.217,0.522c0.145,0.144,0.316,0.22,0.523,0.22h0.244c0.205,0,0.383-0.076,0.522-0.22
	c0.146-0.144,0.216-0.317,0.216-0.522v-1.913c-0.021-0.267-0.061-0.505-0.122-0.709c-0.062-0.207-0.188-0.389-0.37-0.557
	l-3.977-3.051c-0.311-0.288-0.528-0.573-0.662-0.86c-0.133-0.288-0.198-0.667-0.198-1.14V5.883c0-0.535,0.101-1.037,0.306-1.51
	c0.205-0.472,0.481-0.881,0.834-1.231c0.349-0.352,0.76-0.628,1.231-0.834s0.978-0.307,1.511-0.307h1.172
	c0.533,0,1.037,0.101,1.51,0.307L89.542,2.306z"/>
</svg>
