<?xml version="1.0" encoding="utf-8"?>
<!-- Generator: Adobe Illustrator 16.0.0, SVG Export Plug-In . SVG Version: 6.00 Build 0)  -->
<!DOCTYPE svg PUBLIC "-//W3C//DTD SVG 1.1//EN" "http://www.w3.org/Graphics/SVG/1.1/DTD/svg11.dtd">
<svg version="1.1" id="Layer_1" xmlns="http://www.w3.org/2000/svg" xmlns:xlink="http://www.w3.org/1999/xlink" x="0px" y="0px"
	 width="32px" height="32px" viewBox="0 0 32 32" enable-background="new 0 0 32 32" xml:space="preserve">
<g>
	<g>
		<path fill="#231F20" d="M-27.56,2h-10.514v28h2.404V4.164h7.87c3.726,0,6.188,2.462,6.188,6.008c0,3.484-2.462,6.007-6.188,6.007
			h-5.526l0.059,2.164h5.708c5.349,0,8.412-3.785,8.412-8.17C-19.148,5.785-22.211,2-27.56,2z M-9.776,2l-11.475,28h2.763
			l2.763-6.908h12.679l-0.841-2.164h-11.056l6.61-16.344L1.82,30h2.763L-6.771,2H-9.776z M17.382,2H6.867v28H9.27V4.164h7.872
			c3.724,0,6.188,2.462,6.188,6.008c0,3.484-2.465,6.007-6.188,6.007h-5.528v2.164h5.769c5.347,0,8.408-3.785,8.408-8.17
			C25.79,5.785,22.791,2,17.382,2z M28.978,30h17.781v-2.163h-15.38V16.78h15.079v-2.164H31.379V4.224h15.38V2.061H28.978V30z
			 M61.963,18.222c4.202-0.18,7.752-3.003,7.752-8.049C69.715,5.064,66.048,2,61.182,2H50.727v28h2.405V4.164h7.87
			c3.726,0,6.187,2.462,6.187,6.008c0,3.544-2.461,6.067-6.187,6.067h-6.011l0.062,2.166h4.265L67.188,30h2.886L61.963,18.222z"/>
	</g>
</g>
</svg>
