<?xml version="1.0" encoding="utf-8"?>
<!-- Generator: Adobe Illustrator 19.2.1, SVG Export Plug-In . SVG Version: 6.00 Build 0)  -->
<svg version="1.1" id="Layer_1" xmlns="http://www.w3.org/2000/svg" xmlns:xlink="http://www.w3.org/1999/xlink" x="0px" y="0px"
	 viewBox="0 0 30 30" style="enable-background:new 0 0 30 30;" xml:space="preserve">
<g>
	<path d="M95.9,19.3c1.1,0.5,2.5,0.7,4.2,0.7c1.5,0,2.8-0.4,3.8-1.1s1.5-1.8,1.5-3.3c0-0.6-0.1-1.2-0.2-1.7
		c-0.2-0.5-0.4-0.9-0.8-1.2c-0.4-0.4-0.8-0.7-1.1-0.9c-0.4-0.2-0.9-0.5-1.6-0.9c-1.4-0.7-2.1-1.4-2.1-2.1c0-0.5,0.3-0.8,0.5-0.9
		c0.3-0.1,0.7-0.2,1.2-0.2c0.9,0,1.7,0.1,2.4,0.3c0.1,0,0.2,0,0.3,0c0.2,0,0.3-0.1,0.4-0.3l0.4-2.1c0-0.2,0-0.5-0.4-0.6
		c-0.9-0.4-2.1-0.6-3.5-0.6c-1.8,0-3.1,0.3-3.9,1c-1,0.7-1.4,1.8-1.4,3.3c0,0.7,0.1,1.3,0.3,1.9c0.2,0.5,0.5,1,0.8,1.4
		c0.4,0.4,0.8,0.7,1.1,0.9c0.4,0.2,0.8,0.5,1.4,0.8c0.8,0.4,1.3,0.8,1.6,1c0.3,0.3,0.5,0.6,0.5,1c0,0.8-0.8,1.2-2.3,1.2
		c-0.9,0-1.8-0.2-2.6-0.5c-0.1,0-0.2-0.1-0.3-0.1c-0.1,0-0.2,0-0.3,0.4l-0.4,2.1c-0.1,0.3,0,0.4,0,0.4
		C95.5,19.1,95.7,19.2,95.9,19.3z"/>
	<path d="M57,18.4c0.5,0.6,1.1,1,1.8,1.2c0.7,0.3,1.6,0.4,2.5,0.4c1,0,1.8-0.1,2.5-0.4s1.3-0.7,1.8-1.2c0.5-0.6,0.9-1.4,1.2-2.4
		c0.3-1,0.4-2.3,0.4-3.8s-0.1-2.8-0.4-3.8S66.1,6.6,65.6,6s-1.1-1-1.8-1.2c-0.7-0.3-1.6-0.4-2.5-0.4c-1,0-1.8,0.1-2.5,0.4
		C58.1,5,57.5,5.5,57,6c-0.5,0.6-0.9,1.4-1.2,2.4s-0.4,2.3-0.4,3.8s0.1,2.8,0.4,3.8C56.1,17,56.5,17.8,57,18.4z M59.8,8.8
		c0.3-0.7,0.8-1,1.5-1s1.3,0.4,1.6,1c0.3,0.6,0.4,1.8,0.4,3.5s-0.1,2.8-0.4,3.4c-0.3,0.7-0.8,1-1.6,1c-0.7,0-1.3-0.4-1.5-1
		c-0.3-0.6-0.4-1.8-0.4-3.4C59.4,10.5,59.5,9.4,59.8,8.8z"/>
	<path d="M70.3,18.4c0.5,0.6,1.1,1,1.8,1.2c0.7,0.3,1.6,0.4,2.5,0.4c1,0,1.8-0.1,2.5-0.4s1.3-0.7,1.8-1.2c0.5-0.6,0.9-1.4,1.2-2.4
		c0.3-1,0.4-2.3,0.4-3.8s-0.1-2.8-0.4-3.8S79.4,6.6,78.9,6s-1.1-1-1.8-1.2c-0.7-0.3-1.6-0.4-2.5-0.4c-1,0-1.8,0.1-2.5,0.4
		C71.4,5,70.8,5.5,70.3,6c-0.5,0.6-0.9,1.4-1.2,2.4c-0.3,1-0.4,2.3-0.4,3.8s0.1,2.8,0.4,3.8C69.4,17,69.8,17.8,70.3,18.4z M73.1,8.8
		c0.3-0.7,0.8-1,1.5-1s1.3,0.4,1.6,1c0.3,0.6,0.4,1.8,0.4,3.5s-0.1,2.8-0.4,3.4c-0.3,0.7-0.8,1-1.6,1c-0.7,0-1.3-0.4-1.5-1
		c-0.3-0.6-0.4-1.8-0.4-3.4C72.7,10.5,72.9,9.4,73.1,8.8z"/>
	<path d="M83.3,19.8h2.9c0.4,0,0.5-0.1,0.5-0.5v-6.1v-0.8l0.3,0.7l2.9,6.1c0.2,0.4,0.4,0.5,0.8,0.5h3.1c0.2,0,0.3-0.1,0.3-0.1
		c0-0.1,0.1-0.2-0.1-0.4l-3.8-7.7v-0.1v-0.1l3.6-6.2C94,5,94,4.9,93.9,4.8c0,0-0.1-0.1-0.3-0.1h-3.1c-0.3,0-0.6,0.2-0.8,0.6L87,10
		l-0.3,0.6V9.9V5.1c0-0.4-0.1-0.5-0.5-0.5h-2.9c-0.4,0-0.5,0.1-0.5,0.5v14.2C82.8,19.7,82.9,19.8,83.3,19.8z"/>
	<path d="M23,19.8h4.4c2.2,0,3.9-0.6,4.9-1.7s1.5-3.1,1.5-5.9s-0.5-4.7-1.5-5.9c-1-1.1-2.7-1.7-4.9-1.7H23c-0.4,0-0.5,0.1-0.5,0.5
		v14.2C22.5,19.7,22.7,19.8,23,19.8z M26.5,16.2v-8V8h0.2h0.6c0.9,0,1.6,0.3,2,0.9c0.4,0.6,0.6,1.6,0.6,3.3c0,1.6-0.2,2.7-0.6,3.3
		c-0.4,0.6-1.1,0.9-2,0.9h-0.6h-0.2V16.2z"/>
	<path d="M43.1,19.8h5.4c3.6,0,5.3-1.4,5.3-4.4c0-0.9-0.2-1.7-0.6-2.3c-0.4-0.6-0.9-1-1.5-1.2l-0.2-0.1L51,11.7l0.4-0.2l0.2-0.1
		c1.1-0.5,1.7-1.5,1.7-3c0-1.4-0.4-2.4-1.2-2.9c-0.8-0.6-2.2-0.8-4.1-0.8h-5c-0.4,0-0.5,0.1-0.5,0.5v14.2
		C42.6,19.7,42.7,19.8,43.1,19.8z M46.4,10.5V7.8V7.7h0.2H48c0.6,0,1,0.1,1.2,0.3c0.3,0.2,0.4,0.6,0.4,1.1s-0.1,0.9-0.4,1.2
		c-0.3,0.2-0.7,0.4-1.2,0.4h-1.4h-0.2C46.4,10.7,46.4,10.5,46.4,10.5z M46.4,16.6v-3v-0.2h0.2h1.6c0.6,0,1,0.1,1.3,0.4
		c0.3,0.3,0.4,0.7,0.4,1.3s-0.1,1-0.4,1.3c-0.3,0.3-0.7,0.4-1.3,0.4h-1.6h-0.2V16.6z"/>
	<path d="M105,23.7H65c-1.9,0-4,0-6.3,0.5c-1.8,0.3-3.5,1.1-4.7,2.2l-0.1,0.1l-0.1-0.1c-1.2-1.1-2.8-1.9-4.7-2.2
		c-2.3-0.4-6.3-0.5-6.3-0.5h-40c-0.4,0-0.5,0.1-0.5,0.5s0,1.3,0,1.7c0,0.3,0.1,0.5,0.5,0.5h40.3c0.9,0,3.9,0,5.6,0.4
		c2.6,0.6,4,2.5,4.3,2.9h1.9c0.3-0.4,1.7-2.3,4.3-2.9c1.6-0.4,4.6-0.4,5.8-0.4h40c0.4,0,0.5-0.1,0.5-0.5v-1.7
		C105.4,23.9,105.3,23.7,105,23.7z"/>
	<path d="M3.1,19.8H6c0.4,0,0.5-0.1,0.5-0.5v-4v-0.2h0.2h0.8h0.1v0.1l1.9,4.1c0.2,0.3,0.4,0.5,0.8,0.5h3c0.2,0,0.3-0.1,0.3-0.1
		c0-0.1,0-0.3-0.1-0.4l-2.4-4.5L11,14.6l0.2-0.1h0.1c1.6-0.7,2.4-2.2,2.4-4.5c0-2-0.5-3.4-1.4-4.2C11.5,5.1,10,4.6,7.9,4.6H3.1
		c-0.3,0-0.5,0.2-0.5,0.5v14.2C2.6,19.7,2.8,19.8,3.1,19.8z M6.5,11.9V8.1V8h0.2h1.2c0.7,0,1.2,0.2,1.5,0.5s0.4,0.8,0.4,1.6
		c0,0.7-0.1,1.2-0.4,1.6c-0.3,0.2-0.8,0.4-1.5,0.4H6.7H6.5V11.9z"/>
	<path d="M16.6,19.8h2.9c0.4,0,0.5-0.1,0.5-0.5V5.1c0-0.4-0.1-0.5-0.5-0.5h-2.9c-0.4,0-0.5,0.1-0.5,0.5v14.2
		C16.1,19.7,16.2,19.8,16.6,19.8z"/>
	<path d="M36.6,19.8h2.9c0.4,0,0.5-0.1,0.5-0.5V5.1c0-0.4-0.1-0.5-0.5-0.5h-2.9c-0.4,0-0.5,0.1-0.5,0.5v14.2
		C36.1,19.7,36.3,19.8,36.6,19.8z"/>
</g>
</svg>
