<?xml version="1.0" encoding="utf-8"?>
<!-- Generator: Adobe Illustrator 16.0.0, SVG Export Plug-In . SVG Version: 6.00 Build 0)  -->
<!DOCTYPE svg PUBLIC "-//W3C//DTD SVG 1.1//EN" "http://www.w3.org/Graphics/SVG/1.1/DTD/svg11.dtd">
<svg version="1.1" id="Layer_1" xmlns="http://www.w3.org/2000/svg" xmlns:xlink="http://www.w3.org/1999/xlink" x="0px" y="0px"
	 width="30px" height="30px" viewBox="0 0 30 30" enable-background="new 0 0 30 30" xml:space="preserve">
<path d="M12.109,16.988c0.947-0.412,1.517-1.008,2.098-1.773c0.579-0.767,0.87-1.632,0.87-2.592V6.264
	c0-0.674-0.151-1.313-0.456-1.911s-0.527-1.119-1.044-1.558c-0.519-0.444-1.13-0.792-1.832-1.052
	c-0.704-0.259-1.45-0.389-2.239-0.389L2.642,1.354C2.214,1.354,2,1.536,2,1.898v26.203c0,0.365,0.213,0.545,0.642,0.545l4.071,0.002
	c0.336,0,0.533-0.129,0.594-0.387l0.045,0.387V18.551l3.343,9.549c0.062,0.16,0.176,0.287,0.342,0.393
	c0.166,0.104,0.342,0.152,0.528,0.152h4.163c0.397,0,0.549-0.182,0.458-0.545l-4.074-11.111H12.109z M9.912,12.425
	c0,0.26-0.106,0.482-0.319,0.662c-0.214,0.182-0.473,0.272-0.777,0.272H7.351V5.522h1.465c0.305,0,0.562,0.094,0.777,0.273
	c0.213,0.181,0.319,0.402,0.319,0.663V12.425z M23.533,1.351h-4.071c-0.428,0-0.641,0.182-0.641,0.544V28.1
	c0,0.363,0.211,0.545,0.641,0.545h4.071c0.429,0,0.644-0.184,0.644-0.545V1.898C24.178,1.535,23.96,1.351,23.533,1.351z
	 M39.298,2.794c-0.519-0.443-0.938-0.792-1.641-1.052c-0.703-0.259-1.448-0.389-2.241-0.389h-6.864c-0.426,0-0.64,0.182-0.64,0.544
	V28.1c0,0.365,0.212,0.545,0.64,0.545h6.864c0.793,0,1.54-0.129,2.241-0.387c0.702-0.26,1.122-0.611,1.641-1.053
	c0.517-0.443,0.931-0.965,1.234-1.559c0.308-0.6,0.458-1.238,0.458-1.91L40.988,6.264c0-0.674-0.15-1.313-0.456-1.911
	c-0.308-0.598-0.719-1.119-1.234-1.558V2.794z M35.826,23.539c0,0.262-0.107,0.482-0.321,0.66c-0.212,0.184-0.471,0.275-0.777,0.275
	h-1.462V5.522h1.462c0.308,0,0.565,0.094,0.777,0.273c0.212,0.181,0.321,0.402,0.321,0.663V23.539z M49.551,1.351h-4.071
	c-0.43,0-0.642,0.182-0.642,0.544V28.1c0,0.363,0.213,0.545,0.642,0.545h4.071c0.427,0,0.642-0.184,0.642-0.545V1.898
	C50.193,1.535,49.979,1.351,49.551,1.351z M65.558,2.522c-0.519-0.443-1.13-0.792-1.831-1.051c-0.703-0.26-1.449-0.392-2.239-0.392
	h-1.738c-0.794,0-1.542,0.13-2.242,0.392c-0.703,0.257-1.313,0.61-1.83,1.051c-0.521,0.443-0.934,0.962-1.236,1.559
	c-0.305,0.597-0.459,1.235-0.459,1.91v4.68c0,0.596,0.102,1.08,0.298,1.442c0.197,0.366,0.527,0.729,0.983,1.093l5.902,3.86
	c0.275,0.211,0.456,0.441,0.55,0.703c0.094,0.26,0.151,0.557,0.184,0.895l-0.005,5.148c0,0.258-0.105,0.48-0.317,0.662
	c-0.213,0.18-0.474,0.268-0.777,0.268h-0.367c-0.306,0-0.562-0.088-0.774-0.268c-0.214-0.182-0.32-0.404-0.32-0.662v-4.799
	c0-0.361-0.2-0.49-0.597-0.387l-4.162,0.936c-0.399,0.104-0.597,0.338-0.597,0.701v3.746c0,0.674,0.151,1.312,0.459,1.906
	c0.303,0.6,0.716,1.121,1.234,1.559c0.517,0.443,1.127,0.793,1.832,1.053c0.7,0.262,1.448,0.393,2.238,0.393h1.74
	c0.792,0,1.54-0.131,2.241-0.393c0.701-0.258,1.312-0.609,1.831-1.053c0.517-0.439,0.929-0.963,1.235-1.559
	c0.305-0.596,0.456-1.232,0.456-1.906l0.002-6.709c-0.062-0.469-0.159-0.891-0.297-1.27c-0.139-0.375-0.451-0.748-0.938-1.111
	l-5.995-3.82c-0.242-0.208-0.411-0.416-0.503-0.625c-0.089-0.209-0.151-0.456-0.181-0.741l-0.002-3.547
	c0-0.258,0.106-0.48,0.32-0.662s0.47-0.271,0.775-0.271h0.367c0.305,0,0.564,0.094,0.777,0.271c0.212,0.182,0.321,0.404,0.321,0.662
	v2.536c0,0.363,0.195,0.492,0.594,0.389l4.164-0.936c0.396-0.104,0.595-0.338,0.595-0.704V5.99c0-0.675-0.151-1.314-0.456-1.909
	C66.487,3.482,66.078,2.964,65.558,2.522z M83.334,1.351h-4.183c-0.428,0-0.64,0.182-0.64,0.544v9.838h-3.563V1.897
	c0-0.366-0.209-0.545-0.641-0.545h-4.073c-0.427,0-0.64,0.183-0.64,0.545V28.1c0,0.365,0.211,0.543,0.64,0.543h4.073
	c0.428,0,0.641-0.18,0.641-0.543V16.947h3.563V28.1c0,0.365,0.212,0.545,0.64,0.545h4.183c0.427,0,0.642-0.182,0.642-0.545V1.897
	C83.976,1.533,83.759,1.35,83.334,1.351L83.334,1.351z M99.271,2.522c-0.519-0.443-1.13-0.792-1.831-1.051
	c-0.703-0.26-1.448-0.392-2.24-0.392h-1.632c-0.793,0-1.545,0.13-2.242,0.392c-0.701,0.257-1.31,0.61-1.831,1.051
	c-0.518,0.443-0.931,0.962-1.234,1.559c-0.308,0.597-0.459,1.235-0.459,1.909v18.018c0,0.674,0.153,1.312,0.459,1.904
	c0.306,0.602,0.717,1.123,1.234,1.561c0.52,0.443,1.13,0.793,1.831,1.053c0.701,0.262,1.449,0.391,2.242,0.391h1.632
	c0.792,0,1.539-0.129,2.24-0.391c0.701-0.26,1.312-0.609,1.831-1.053c0.517-0.439,0.929-0.963,1.235-1.561
	c0.305-0.596,0.456-1.23,0.456-1.904V5.991c0-0.675-0.153-1.313-0.458-1.909c-0.305-0.6-0.717-1.118-1.235-1.559L99.271,2.522
	L99.271,2.522z M95.61,23.812c0,0.258-0.108,0.48-0.32,0.662c-0.216,0.18-0.474,0.268-0.778,0.268h-0.257
	c-0.307,0-0.563-0.088-0.778-0.268c-0.212-0.182-0.318-0.404-0.318-0.662L93.154,6.187c0-0.258,0.11-0.48,0.32-0.662
	c0.211-0.182,0.472-0.271,0.778-0.271h0.257c0.303,0,0.562,0.094,0.778,0.271c0.208,0.182,0.318,0.404,0.318,0.662L95.61,23.812z
	 M117.542,4.353c-0.305-0.598-0.717-1.119-1.234-1.558c-0.518-0.44-1.129-0.792-1.832-1.052c-0.702-0.259-1.448-0.389-2.24-0.389
	h-6.863c-0.429,0-0.641,0.182-0.641,0.544V28.1c0,0.365,0.212,0.545,0.641,0.545h4.07c0.427,0,0.643-0.182,0.643-0.545V17.533h2.15
	c0.792,0,1.542-0.129,2.24-0.389c0.703-0.26,1.313-0.609,1.832-1.053c0.518-0.441,0.93-0.961,1.234-1.559
	c0.307-0.597,0.458-1.234,0.458-1.909v-6.36C118,5.589,117.847,4.953,117.542,4.353L117.542,4.353z M112.645,12.425
	c0,0.26-0.108,0.482-0.32,0.662c-0.214,0.182-0.472,0.272-0.776,0.272h-1.465V5.522h1.465c0.305,0,0.562,0.094,0.776,0.273
	c0.214,0.181,0.32,0.402,0.32,0.663V12.425z"/>
</svg>
