<?xml version="1.0" encoding="utf-8"?>
<!-- Generator: Adobe Illustrator 16.0.0, SVG Export Plug-In . SVG Version: 6.00 Build 0)  -->
<!DOCTYPE svg PUBLIC "-//W3C//DTD SVG 1.0//EN" "http://www.w3.org/TR/2001/REC-SVG-20010904/DTD/svg10.dtd">
<svg version="1.0" id="Layer_1" xmlns="http://www.w3.org/2000/svg" xmlns:xlink="http://www.w3.org/1999/xlink" x="0px" y="0px"
	 width="30px" height="30px" viewBox="-51.5 1 30 30" enable-background="new -51.5 1 30 30" xml:space="preserve">
<path d="M-44.509,28.193c0,0.396-0.21,0.595-0.643,0.595l-3.793,0.006c-0.369,0-0.555-0.197-0.555-0.598V3.806
	c0-0.397,0.198-0.597,0.597-0.597h6.394c0.737,0,1.434,0.145,2.089,0.426c0.653,0.287,1.22,0.67,1.703,1.153
	c0.485,0.482,0.868,1.051,1.154,1.706c0.286,0.655,0.428,1.35,0.428,2.085v5.247c0,1.052-0.314,1.998-0.938,2.837
	c-0.627,0.839-1.38,1.483-2.258,1.938l4.05,9.595c0.087,0.397-0.056,0.598-0.426,0.598l-3.882-0.003c-0.17,0-0.333-0.055-0.489-0.17
	c-0.158-0.115-0.263-0.255-0.317-0.428l-3.112-7.889l-0.006,7.886L-44.509,28.193z M-44.509,14.633h1.364
	c0.286,0,0.523-0.101,0.723-0.3c0.197-0.197,0.301-0.443,0.301-0.724V8.793c0-0.285-0.102-0.523-0.301-0.723
	c-0.199-0.197-0.442-0.301-0.723-0.301h-1.364v6.865V14.633z M-28.476,28.193c0,0.396-0.196,0.595-0.596,0.595l-3.798,0.006
	c-0.396,0-0.597-0.197-0.597-0.598l0.004-24.391c0-0.397,0.196-0.597,0.596-0.597h3.795c0.395,0,0.596,0.197,0.596,0.597
	l0.002,24.388H-28.476z M-17.649,3.206c0.738,0,1.433,0.145,2.091,0.426c0.652,0.287,1.22,0.67,1.704,1.153
	c0.484,0.482,0.868,1.051,1.153,1.706c0.285,0.655,0.427,1.35,0.427,2.086v14.841c0,0.736-0.143,1.433-0.427,2.085
	c-0.285,0.656-0.669,1.224-1.153,1.709c-0.484,0.483-1.052,0.866-1.704,1.151c-0.656,0.285-1.353,0.425-2.091,0.425l-6.393,0.003
	c-0.396,0-0.596-0.197-0.596-0.595l-0.003-24.392c0-0.398,0.197-0.597,0.597-0.597l6.396-0.003L-17.649,3.206z M-17.267,8.793
	c0-0.285-0.101-0.523-0.3-0.723c-0.198-0.197-0.442-0.301-0.722-0.301h-1.365v16.458h1.365c0.285,0,0.523-0.102,0.722-0.299
	c0.198-0.199,0.3-0.443,0.3-0.726V8.793z M-3.875,28.193c0,0.396-0.198,0.595-0.596,0.595h-3.795c-0.396,0-0.596-0.197-0.596-0.595
	L-8.865,3.806c0-0.397,0.198-0.597,0.597-0.597h3.796c0.395,0,0.596,0.197,0.596,0.597L-3.875,28.193z M11.134,16.724
	c0.396,0.396,0.694,0.865,0.894,1.403c0.197,0.54,0.301,1.14,0.301,1.79v3.497c0,0.737-0.145,1.433-0.427,2.087
	c-0.286,0.655-0.667,1.22-1.153,1.706c-0.484,0.484-1.051,0.866-1.705,1.15c-0.656,0.287-1.352,0.428-2.089,0.428h-6.27
	c-0.171,0-0.332-0.024-0.49-0.065C0.038,28.676-0.04,28.5-0.04,28.186l0.001-24.38c0-0.397,0.198-0.597,0.597-0.597h6.395
	c0.737,0,1.434,0.145,2.09,0.426c0.654,0.287,1.221,0.67,1.705,1.153c0.485,0.484,0.867,1.051,1.153,1.706
	c0.286,0.653,0.426,1.35,0.426,2.085v2.813c0,1.31-0.396,2.403-1.194,3.283c-0.427,0.457-0.938,0.827-1.534,1.107
	c0.628,0.228,1.139,0.542,1.536,0.937V16.724z M7.34,8.793c0-0.285-0.101-0.523-0.302-0.723C6.841,7.874,6.596,7.77,6.314,7.77
	H4.949v5.8h1.365c0.285,0,0.526-0.102,0.724-0.301c0.197-0.197,0.302-0.442,0.302-0.723V8.793z M7.34,19.241
	c0-0.286-0.101-0.526-0.302-0.727c-0.197-0.195-0.442-0.298-0.724-0.298H4.949v6.012h1.365c0.285,0,0.526-0.102,0.724-0.299
	c0.198-0.199,0.302-0.443,0.302-0.726V19.241z M27.465,23.717c0,0.736-0.144,1.436-0.427,2.088
	c-0.287,0.655-0.669,1.223-1.153,1.705c-0.483,0.485-1.052,0.867-1.703,1.152c-0.655,0.285-1.352,0.428-2.091,0.428h-1.619
	c-0.739,0-1.434-0.146-2.089-0.428c-0.655-0.285-1.22-0.668-1.706-1.152c-0.483-0.484-0.867-1.051-1.154-1.705
	c-0.285-0.652-0.425-1.352-0.425-2.088V8.281c0-0.736,0.142-1.434,0.427-2.086c0.285-0.656,0.669-1.221,1.154-1.708
	c0.484-0.483,1.051-0.866,1.706-1.152c0.655-0.286,1.35-0.427,2.087-0.427h1.621c0.737,0,1.434,0.143,2.091,0.427
	c0.651,0.287,1.218,0.669,1.703,1.152c0.484,0.486,0.866,1.05,1.151,1.708c0.285,0.654,0.429,1.351,0.429,2.086L27.465,23.717z
	 M22.475,8.493c0-0.284-0.101-0.524-0.3-0.723c-0.198-0.197-0.442-0.299-0.724-0.299h-0.344c-0.285,0-0.523,0.101-0.721,0.299
	c-0.198,0.198-0.299,0.442-0.299,0.723v15.012c0,0.285,0.101,0.525,0.299,0.724c0.197,0.198,0.441,0.3,0.721,0.3h0.344
	c0.285,0,0.525-0.102,0.724-0.3c0.199-0.198,0.3-0.441,0.3-0.724V8.493z M42.812,23.717c0,0.736-0.142,1.436-0.427,2.088
	c-0.285,0.655-0.668,1.223-1.154,1.705c-0.484,0.485-1.051,0.867-1.705,1.152c-0.655,0.285-1.352,0.428-2.09,0.428h-1.62
	c-0.736,0-1.433-0.146-2.086-0.428c-0.656-0.285-1.221-0.668-1.705-1.152c-0.486-0.484-0.869-1.051-1.152-1.705
	c-0.287-0.652-0.427-1.352-0.427-2.088l0.002-15.436c0-0.736,0.144-1.434,0.427-2.086c0.285-0.656,0.667-1.221,1.152-1.708
	c0.482-0.483,1.051-0.866,1.703-1.152c0.655-0.286,1.354-0.427,2.09-0.427h1.62c0.736,0,1.433,0.143,2.088,0.427
	c0.654,0.287,1.221,0.669,1.705,1.152c0.484,0.486,0.867,1.05,1.154,1.708c0.285,0.654,0.428,1.351,0.428,2.086L42.812,23.717z
	 M37.823,8.493c0-0.284-0.101-0.524-0.297-0.723c-0.2-0.197-0.444-0.299-0.726-0.299H36.46c-0.287,0-0.529,0.101-0.724,0.299
	c-0.196,0.198-0.301,0.442-0.301,0.723v15.012c0,0.285,0.103,0.525,0.301,0.724c0.194,0.198,0.44,0.3,0.724,0.3h0.341
	c0.285,0,0.525-0.102,0.726-0.3c0.196-0.198,0.297-0.441,0.297-0.724V8.493z M60.552,3.398c0.055,0.131,0.055,0.262,0,0.407
	l-5.8,10.873l5.713,13.518c0.055,0.144,0.039,0.275-0.039,0.406c-0.085,0.129-0.215,0.192-0.384,0.192h-4.224
	c-0.169,0-0.328-0.05-0.468-0.149c-0.146-0.102-0.242-0.22-0.303-0.363l-3.112-7.077l-0.722,1.367v5.627
	c0,0.397-0.199,0.598-0.597,0.598h-3.792c-0.397,0-0.599-0.197-0.599-0.598L46.225,3.804c0-0.398,0.197-0.597,0.597-0.597h3.79
	c0.397,0,0.599,0.198,0.599,0.597v7.463l3.922-7.548c0.144-0.34,0.411-0.51,0.812-0.51h4.265c0.173-0.005,0.285,0.061,0.345,0.189
	H60.552z M71.209,3.335c0.657,0.287,1.222,0.669,1.71,1.152c0.481,0.486,0.865,1.052,1.15,1.708
	c0.285,0.654,0.429,1.351,0.429,2.086v1.62c0,0.397-0.187,0.655-0.555,0.768l-3.885,1.026c-0.368,0.117-0.551-0.027-0.551-0.427
	V8.498c0-0.285-0.101-0.524-0.299-0.724c-0.199-0.197-0.443-0.298-0.727-0.298h-0.338c-0.289,0-0.527,0.101-0.727,0.298
	c-0.198,0.198-0.301,0.443-0.301,0.724v2.601c0.028,0.313,0.087,0.581,0.172,0.811c0.086,0.228,0.241,0.458,0.472,0.683l5.587,4.177
	c0.456,0.396,0.747,0.802,0.875,1.216c0.13,0.412,0.221,0.877,0.277,1.388v4.348c0,0.738-0.146,1.435-0.429,2.087
	c-0.283,0.656-0.669,1.223-1.15,1.706c-0.488,0.486-1.053,0.869-1.708,1.153c-0.657,0.285-1.354,0.427-2.085,0.427h-1.621
	c-0.737,0-1.434-0.146-2.085-0.427c-0.657-0.284-1.224-0.669-1.705-1.153c-0.486-0.483-0.87-1.051-1.153-1.706
	c-0.287-0.652-0.427-1.349-0.427-2.087v-2.389c0-0.396,0.185-0.654,0.553-0.769l3.883-1.021c0.368-0.116,0.553,0.026,0.553,0.427
	v3.541c0,0.284,0.101,0.525,0.302,0.725c0.196,0.197,0.44,0.299,0.724,0.299h0.338c0.287,0,0.527-0.102,0.725-0.299
	c0.198-0.199,0.303-0.442,0.303-0.725v-2.645c-0.029-0.365-0.085-0.693-0.171-0.981c-0.087-0.285-0.258-0.539-0.512-0.768
	l-5.502-4.223c-0.427-0.396-0.732-0.797-0.919-1.194c-0.185-0.397-0.275-0.922-0.275-1.576l-0.008-3.843
	c0-0.736,0.144-1.434,0.427-2.086c0.283-0.656,0.667-1.221,1.15-1.708c0.484-0.483,1.051-0.866,1.706-1.152
	c0.655-0.286,1.35-0.427,2.087-0.427h1.619C69.857,2.911,70.554,3.05,71.209,3.335z"/>
</svg>
