<?xml version="1.0" encoding="utf-8"?>
<!-- Generated by IcoMoon.io -->
<!DOCTYPE svg PUBLIC "-//W3C//DTD SVG 1.1//EN" "http://www.w3.org/Graphics/SVG/1.1/DTD/svg11.dtd">
<svg version="1.1" xmlns="http://www.w3.org/2000/svg" xmlns:xlink="http://www.w3.org/1999/xlink" width="32" height="32" viewBox="0 0 32 32">
<path fill="rgb(68, 68, 68)" d="M26.187 4.053h-1.707v-0.853c0-0.469-0.384-0.853-0.853-0.853s-0.853 0.384-0.853 0.853v0.853h-3.413v-0.853c0-0.469-0.384-0.853-0.853-0.853s-0.853 0.384-0.853 0.853v0.853h-3.413v-0.853c0-0.469-0.384-0.853-0.853-0.853s-0.853 0.384-0.853 0.853v0.853h-3.413v-0.853c0-0.469-0.384-0.853-0.853-0.853s-0.853 0.384-0.853 0.853v0.853h-1.707c-1.877 0-3.413 1.536-3.413 3.413v18.773c0 1.877 1.536 3.413 3.413 3.413h20.48c1.877 0 3.413-1.536 3.413-3.413v-18.773c0-1.877-1.536-3.413-3.413-3.413zM27.893 26.24c0 0.939-0.768 1.707-1.707 1.707h-20.48c-0.939 0-1.707-0.768-1.707-1.707v-18.773c0-0.939 0.768-1.707 1.707-1.707h1.707v0.853c0 0.469 0.384 0.853 0.853 0.853s0.853-0.384 0.853-0.853v-0.853h3.413v0.853c0 0.469 0.384 0.853 0.853 0.853s0.853-0.384 0.853-0.853v-0.853h3.413v0.853c0 0.469 0.384 0.853 0.853 0.853s0.853-0.384 0.853-0.853v-0.853h3.413v0.853c0 0.469 0.384 0.853 0.853 0.853s0.853-0.384 0.853-0.853v-0.853h1.707c0.939 0 1.707 0.768 1.707 1.707v18.773zM24.48 13.867c0 0.235-0.192 0.427-0.427 0.427 0 0 0 0 0 0h-16.213c0 0 0 0 0 0-0.235 0-0.427-0.192-0.427-0.427s0.192-0.427 0.427-0.427v0h16.213c0.235 0 0.427 0.192 0.427 0.427zM24.48 17.28c0 0.235-0.192 0.427-0.427 0.427 0 0 0 0 0 0h-16.213c0 0 0 0 0 0-0.235 0-0.427-0.192-0.427-0.427s0.192-0.427 0.427-0.427v0h16.213c0.235 0 0.427 0.192 0.427 0.427zM24.48 20.693c0 0.235-0.192 0.427-0.427 0.427 0 0 0 0 0 0h-16.213c0 0 0 0 0 0-0.235 0-0.427-0.192-0.427-0.427s0.192-0.427 0.427-0.427v0h16.213c0.235 0 0.427 0.192 0.427 0.427zM24.48 24.107c0 0.235-0.192 0.427-0.427 0.427h-16.213c-0.235 0-0.427-0.192-0.427-0.427s0.192-0.427 0.427-0.427h16.213c0.235 0 0.427 0.192 0.427 0.427z"></path>
</svg>
