<?xml version="1.0" encoding="utf-8"?>
<!-- Generated by IcoMoon.io -->
<!DOCTYPE svg PUBLIC "-//W3C//DTD SVG 1.1//EN" "http://www.w3.org/Graphics/SVG/1.1/DTD/svg11.dtd">
<svg version="1.1" xmlns="http://www.w3.org/2000/svg" xmlns:xlink="http://www.w3.org/1999/xlink" width="32" height="32" viewBox="0 0 32 32">
<path fill="rgb(68, 68, 68)" d="M16.021 1.632c8.331 0 14.368 6.347 14.368 14.304s-6.037 14.336-14.368 14.336c-8.299 0-14.336-6.379-14.336-14.336s6.037-14.304 14.336-14.304zM20.747 19.989h-6.133l3.445-2.624c1.835-1.408 2.869-2.773 2.869-4.544 0-2.315-2.101-3.968-4.821-3.968-1.984 0-3.573 0.672-4.693 1.461l0.363 2.475c1.195-0.789 2.56-1.429 3.872-1.429 1.28 0 2.293 0.736 2.293 1.803 0 0.885-0.64 1.707-1.803 2.688l-5.099 4.267v2.229h10.080l-0.373-2.357z"></path>
</svg>
