<?xml version="1.0" encoding="utf-8"?>
<!-- Generated by IcoMoon.io -->
<!DOCTYPE svg PUBLIC "-//W3C//DTD SVG 1.1//EN" "http://www.w3.org/Graphics/SVG/1.1/DTD/svg11.dtd">
<svg version="1.1" xmlns="http://www.w3.org/2000/svg" xmlns:xlink="http://www.w3.org/1999/xlink" width="32" height="32" viewBox="0 0 32 32">
<path fill="rgb(68, 68, 68)" d="M20.309 5.685c4.245 0 7.68 3.435 7.68 7.68s-3.435 7.68-7.68 7.68v0h-3.413l-5.12 5.12v-5.12c-4.245 0-7.68-3.435-7.68-7.68s3.435-7.68 7.68-7.68h8.533zM20.309 3.979h-8.533c-5.173 0-9.387 4.213-9.387 9.387 0 4.597 3.317 8.427 7.68 9.227v3.573c0 0.693 0.416 1.312 1.056 1.579 0.213 0.085 0.437 0.128 0.651 0.128 0.448 0 0.885-0.171 1.205-0.501l4.619-4.619h2.709c5.173 0 9.387-4.213 9.387-9.387 0-5.184-4.213-9.387-9.387-9.387v0z"></path>
<path fill="rgb(68, 68, 68)" d="M21.344 12.469h-10.613c-0.48 0-0.885-0.395-0.885-0.885v0c0-0.48 0.395-0.885 0.885-0.885h10.613c0.48 0 0.885 0.395 0.885 0.885v0c-0.011 0.491-0.405 0.885-0.885 0.885z"></path>
<path fill="rgb(68, 68, 68)" d="M16.843 16.245h-6.112c-0.48 0-0.885-0.395-0.885-0.885v0c0-0.48 0.395-0.885 0.885-0.885h6.112c0.48 0 0.885 0.395 0.885 0.885v0c-0.011 0.491-0.405 0.885-0.885 0.885z"></path>
</svg>
