<?xml version="1.0" encoding="utf-8"?>
<!-- Generated by IcoMoon.io -->
<!DOCTYPE svg PUBLIC "-//W3C//DTD SVG 1.1//EN" "http://www.w3.org/Graphics/SVG/1.1/DTD/svg11.dtd">
<svg version="1.1" xmlns="http://www.w3.org/2000/svg" xmlns:xlink="http://www.w3.org/1999/xlink" width="64" height="32" viewBox="0 0 64 32">
<path fill="rgb(68, 68, 68)" d="M4.843 21.824c0 0.192-0.107 0.288-0.309 0.288h-1.813c-0.181 0-0.267-0.096-0.267-0.288v-11.648c0-0.192 0.096-0.288 0.288-0.288h3.051c0.352 0 0.683 0.064 1.003 0.203 0.309 0.139 0.587 0.32 0.811 0.544 0.235 0.235 0.416 0.501 0.555 0.821 0.139 0.309 0.203 0.64 0.203 1.003v2.507c0 0.501-0.149 0.949-0.448 1.355s-0.661 0.715-1.077 0.928l1.941 4.587c0.043 0.192-0.032 0.288-0.203 0.288h-1.856c-0.085 0-0.16-0.021-0.235-0.085-0.075-0.053-0.128-0.117-0.149-0.203l-1.483-3.765v3.755zM4.843 15.349h0.651c0.139 0 0.245-0.053 0.341-0.139 0.096-0.096 0.139-0.213 0.139-0.341v-2.304c0-0.128-0.053-0.245-0.139-0.341-0.096-0.096-0.213-0.139-0.341-0.139h-0.651v3.264z"></path>
<path fill="rgb(68, 68, 68)" d="M12.501 21.824c0 0.192-0.096 0.288-0.288 0.288h-1.813c-0.192 0-0.288-0.096-0.288-0.288v-11.648c0-0.192 0.096-0.288 0.288-0.288h1.813c0.192 0 0.288 0.096 0.288 0.288v11.648z"></path>
<path fill="rgb(68, 68, 68)" d="M17.675 9.888c0.352 0 0.683 0.064 1.003 0.203 0.309 0.139 0.587 0.32 0.811 0.544 0.235 0.235 0.416 0.501 0.555 0.821 0.139 0.309 0.203 0.64 0.203 1.003v7.083c0 0.352-0.064 0.683-0.203 1.003-0.139 0.309-0.32 0.587-0.555 0.811-0.235 0.235-0.501 0.416-0.811 0.555s-0.64 0.203-1.003 0.203h-3.051c-0.192 0-0.288-0.096-0.288-0.288v-11.648c0-0.192 0.096-0.288 0.288-0.288h3.051zM17.856 12.555c0-0.128-0.043-0.245-0.139-0.341s-0.213-0.139-0.341-0.139h-0.651v7.861h0.651c0.139 0 0.256-0.043 0.341-0.139 0.096-0.096 0.139-0.213 0.139-0.352v-6.891z"></path>
<path fill="rgb(68, 68, 68)" d="M24.256 21.824c0 0.192-0.096 0.288-0.288 0.288h-1.813c-0.192 0-0.288-0.096-0.288-0.288v-11.648c0-0.192 0.096-0.288 0.288-0.288h1.813c0.192 0 0.288 0.096 0.288 0.288v11.648z"></path>
<path fill="rgb(68, 68, 68)" d="M31.424 16.341c0.192 0.192 0.331 0.416 0.427 0.672s0.139 0.544 0.139 0.853v1.675c0 0.352-0.064 0.683-0.203 1.003-0.139 0.309-0.32 0.587-0.544 0.811-0.235 0.235-0.501 0.416-0.821 0.555-0.309 0.139-0.64 0.203-0.992 0.203h-2.997c-0.085 0-0.16-0.011-0.235-0.032s-0.117-0.107-0.117-0.256v-11.648c0-0.192 0.096-0.288 0.288-0.288h3.051c0.352 0 0.683 0.064 0.992 0.203s0.587 0.32 0.821 0.544c0.235 0.235 0.416 0.501 0.544 0.821 0.139 0.309 0.203 0.64 0.203 1.003v1.344c0 0.629-0.192 1.141-0.576 1.568-0.203 0.213-0.448 0.395-0.736 0.533 0.32 0.107 0.565 0.256 0.757 0.437zM29.611 12.555c0-0.128-0.053-0.245-0.139-0.341-0.096-0.096-0.213-0.139-0.352-0.139h-0.651v2.773h0.651c0.139 0 0.256-0.043 0.352-0.139s0.139-0.213 0.139-0.341v-1.813zM29.611 17.547c0-0.139-0.053-0.256-0.139-0.341-0.096-0.096-0.213-0.139-0.352-0.139h-0.651v2.869h0.651c0.139 0 0.256-0.043 0.352-0.139s0.139-0.213 0.139-0.352v-1.899z"></path>
<path fill="rgb(68, 68, 68)" d="M39.221 19.68c0 0.352-0.064 0.693-0.203 1.003s-0.32 0.587-0.555 0.811c-0.235 0.235-0.501 0.416-0.811 0.555s-0.651 0.203-1.003 0.203h-0.779c-0.352 0-0.683-0.064-0.992-0.203s-0.587-0.32-0.811-0.555c-0.235-0.235-0.416-0.501-0.555-0.811s-0.203-0.651-0.203-1.003v-7.371c0-0.352 0.075-0.683 0.203-1.003 0.139-0.309 0.32-0.587 0.555-0.811 0.235-0.235 0.501-0.416 0.811-0.555s0.64-0.203 0.992-0.203h0.779c0.352 0 0.683 0.064 1.003 0.203 0.309 0.139 0.587 0.32 0.811 0.555 0.235 0.235 0.416 0.501 0.555 0.811s0.203 0.64 0.203 1.003v7.371zM36.843 12.416c0-0.139-0.053-0.245-0.139-0.341-0.096-0.096-0.213-0.139-0.341-0.139h-0.16c-0.139 0-0.256 0.043-0.341 0.139-0.096 0.096-0.139 0.213-0.139 0.341v7.168c0 0.139 0.053 0.256 0.139 0.341 0.096 0.096 0.213 0.139 0.341 0.139h0.16c0.139 0 0.245-0.053 0.341-0.139 0.096-0.096 0.139-0.213 0.139-0.341v-7.168z"></path>
<path fill="rgb(68, 68, 68)" d="M46.549 19.68c0 0.352-0.064 0.693-0.203 1.003s-0.32 0.587-0.555 0.811c-0.235 0.235-0.501 0.416-0.811 0.555s-0.651 0.203-1.003 0.203h-0.768c-0.352 0-0.683-0.064-1.003-0.203-0.309-0.139-0.587-0.32-0.821-0.555s-0.416-0.501-0.544-0.811c-0.139-0.309-0.203-0.651-0.203-1.003v-7.371c0-0.352 0.064-0.683 0.203-1.003 0.139-0.309 0.32-0.587 0.544-0.811 0.235-0.235 0.501-0.416 0.821-0.555 0.309-0.139 0.64-0.203 1.003-0.203h0.768c0.352 0 0.683 0.064 1.003 0.203 0.309 0.139 0.587 0.32 0.811 0.555 0.235 0.235 0.416 0.501 0.555 0.811s0.203 0.64 0.203 1.003v7.371zM44.171 12.416c0-0.139-0.043-0.245-0.139-0.341s-0.213-0.139-0.341-0.139h-0.171c-0.139 0-0.256 0.043-0.352 0.139s-0.139 0.213-0.139 0.341v7.168c0 0.139 0.053 0.256 0.139 0.341 0.096 0.096 0.213 0.139 0.352 0.139h0.16c0.139 0 0.256-0.053 0.341-0.139 0.096-0.096 0.139-0.213 0.139-0.341v-7.168z"></path>
<path fill="rgb(68, 68, 68)" d="M55.019 9.984c0.032 0.064 0.032 0.128 0 0.192l-2.773 5.195 2.731 6.453c0.021 0.064 0.021 0.128-0.021 0.192s-0.107 0.085-0.181 0.085h-2.016c-0.085 0-0.16-0.021-0.224-0.075-0.064-0.043-0.117-0.107-0.139-0.171l-1.483-3.381-0.341 0.651v2.688c0 0.192-0.096 0.288-0.288 0.288h-1.813c-0.192 0-0.288-0.096-0.288-0.288v-11.637c0-0.192 0.096-0.288 0.288-0.288h1.813c0.192 0 0.288 0.096 0.288 0.288v3.563l1.867-3.605c0.064-0.16 0.192-0.245 0.384-0.245h2.037c0.085 0 0.139 0.032 0.16 0.096z"></path>
<path fill="rgb(68, 68, 68)" d="M60.117 9.952c0.309 0.139 0.587 0.32 0.811 0.555 0.235 0.235 0.416 0.501 0.555 0.811s0.203 0.64 0.203 1.003v0.779c0 0.192-0.085 0.309-0.267 0.363l-1.856 0.491c-0.171 0.053-0.267-0.011-0.267-0.203v-1.323c0-0.139-0.043-0.245-0.139-0.341s-0.213-0.139-0.341-0.139h-0.16c-0.139 0-0.256 0.043-0.341 0.139-0.096 0.096-0.139 0.213-0.139 0.341v1.227c0.011 0.149 0.043 0.277 0.085 0.384s0.117 0.213 0.224 0.331l2.667 1.995c0.213 0.192 0.352 0.384 0.416 0.576 0.064 0.203 0.107 0.416 0.128 0.661v2.080c0 0.352-0.064 0.693-0.203 1.003s-0.32 0.587-0.555 0.811c-0.235 0.235-0.501 0.416-0.811 0.555s-0.651 0.203-0.992 0.203h-0.789c-0.352 0-0.683-0.064-1.003-0.203-0.309-0.139-0.587-0.32-0.811-0.555-0.235-0.235-0.416-0.501-0.555-0.811s-0.203-0.651-0.203-1.003v-1.141c0-0.192 0.085-0.309 0.267-0.363l1.856-0.491c0.181-0.053 0.267 0.011 0.267 0.203v1.685c0 0.139 0.043 0.256 0.139 0.341 0.096 0.096 0.213 0.139 0.341 0.139h0.16c0.139 0 0.256-0.053 0.341-0.139 0.096-0.096 0.139-0.213 0.139-0.341v-1.259c-0.011-0.171-0.043-0.331-0.085-0.469s-0.128-0.256-0.245-0.363l-2.613-2.016c-0.203-0.192-0.352-0.373-0.437-0.565s-0.128-0.437-0.128-0.757v-1.835c0-0.352 0.064-0.683 0.203-1.003 0.139-0.309 0.32-0.587 0.555-0.811 0.235-0.235 0.501-0.416 0.811-0.555s0.651-0.203 1.003-0.203h0.779c0.341 0.011 0.672 0.075 0.992 0.213z"></path>
</svg>
