<?xml version="1.0" encoding="utf-8"?>
<!-- Generated by IcoMoon.io -->
<!DOCTYPE svg PUBLIC "-//W3C//DTD SVG 1.1//EN" "http://www.w3.org/Graphics/SVG/1.1/DTD/svg11.dtd">
<svg version="1.1" xmlns="http://www.w3.org/2000/svg" xmlns:xlink="http://www.w3.org/1999/xlink" width="64" height="32" viewBox="0 0 64 32">
<path fill="rgb(68, 68, 68)" d="M8.363 21.835c0 0.192-0.107 0.288-0.309 0.288h-1.813c-0.181 0-0.267-0.096-0.267-0.288v-11.669c0-0.192 0.096-0.288 0.288-0.288h3.061c0.352 0 0.683 0.064 1.003 0.203 0.309 0.139 0.587 0.32 0.821 0.555s0.416 0.501 0.555 0.821c0.139 0.309 0.203 0.651 0.203 1.003v2.507c0 0.501-0.149 0.96-0.448 1.355-0.299 0.405-0.661 0.715-1.077 0.928l1.941 4.597c0.043 0.192-0.032 0.288-0.203 0.288h-1.877c-0.085 0-0.16-0.032-0.235-0.085s-0.128-0.117-0.149-0.203l-1.493-3.776v3.765zM8.363 15.349h0.651c0.139 0 0.256-0.043 0.352-0.139s0.139-0.213 0.139-0.352v-2.304c0-0.139-0.043-0.256-0.139-0.352s-0.213-0.139-0.352-0.139h-0.651v3.285z"></path>
<path fill="rgb(68, 68, 68)" d="M16.043 21.835c0 0.192-0.096 0.288-0.288 0.288h-1.813c-0.192 0-0.288-0.096-0.288-0.288v-11.669c0-0.192 0.096-0.288 0.288-0.288h1.813c0.192 0 0.288 0.096 0.288 0.288v11.669z"></path>
<path fill="rgb(68, 68, 68)" d="M21.227 9.877c0.352 0 0.683 0.064 1.003 0.203 0.309 0.139 0.587 0.32 0.821 0.555s0.416 0.501 0.555 0.821c0.139 0.309 0.203 0.651 0.203 1.003v7.104c0 0.352-0.064 0.683-0.203 1.003-0.139 0.309-0.32 0.587-0.555 0.821s-0.501 0.416-0.821 0.555c-0.309 0.139-0.651 0.203-1.003 0.203h-3.061c-0.192 0-0.288-0.096-0.288-0.288v-11.691c0-0.192 0.096-0.288 0.288-0.288h3.061zM21.408 12.555c0-0.139-0.043-0.256-0.139-0.352s-0.213-0.139-0.352-0.139h-0.651v7.883h0.651c0.139 0 0.256-0.043 0.352-0.139s0.139-0.213 0.139-0.352v-6.901z"></path>
<path fill="rgb(68, 68, 68)" d="M27.819 21.835c0 0.192-0.096 0.288-0.288 0.288h-1.813c-0.192 0-0.288-0.096-0.288-0.288v-11.669c0-0.192 0.096-0.288 0.288-0.288h1.813c0.192 0 0.288 0.096 0.288 0.288v11.669z"></path>
<path fill="rgb(68, 68, 68)" d="M33.696 9.941c0.309 0.139 0.587 0.32 0.821 0.555s0.416 0.501 0.555 0.821c0.139 0.309 0.203 0.651 0.203 1.003v0.779c0 0.192-0.085 0.309-0.267 0.363l-1.856 0.491c-0.181 0.053-0.267-0.011-0.267-0.203v-1.323c0-0.139-0.043-0.256-0.139-0.352s-0.213-0.139-0.352-0.139h-0.16c-0.139 0-0.256 0.043-0.352 0.139s-0.139 0.213-0.139 0.352v1.227c0.011 0.149 0.043 0.277 0.085 0.384s0.117 0.213 0.224 0.331l2.677 2.005c0.213 0.192 0.352 0.384 0.416 0.587s0.107 0.416 0.128 0.661v2.080c0 0.352-0.064 0.683-0.203 1.003-0.139 0.309-0.32 0.587-0.555 0.821s-0.501 0.416-0.821 0.555c-0.309 0.139-0.651 0.203-1.003 0.203h-0.779c-0.352 0-0.683-0.064-1.003-0.203-0.309-0.139-0.587-0.32-0.821-0.555s-0.416-0.501-0.555-0.821c-0.139-0.309-0.203-0.651-0.203-1.003v-1.141c0-0.192 0.085-0.309 0.267-0.363l1.856-0.491c0.181-0.053 0.267 0.011 0.267 0.203v1.696c0 0.139 0.043 0.256 0.139 0.352s0.213 0.139 0.352 0.139h0.16c0.139 0 0.256-0.043 0.352-0.139s0.139-0.213 0.139-0.352v-1.269c-0.011-0.181-0.043-0.331-0.085-0.469s-0.117-0.256-0.245-0.363l-2.613-2.037c-0.203-0.192-0.352-0.384-0.437-0.576s-0.128-0.437-0.128-0.757v-1.835c0-0.352 0.064-0.683 0.203-1.003 0.139-0.309 0.32-0.587 0.555-0.821s0.501-0.416 0.821-0.555c0.309-0.139 0.651-0.203 1.003-0.203h0.779c0.331 0.021 0.661 0.085 0.981 0.224z"></path>
<path fill="rgb(68, 68, 68)" d="M42.923 10.165v11.68c0 0.192-0.096 0.288-0.288 0.288h-1.813c-0.192 0-0.288-0.096-0.288-0.288v-4.608h-1.344v4.608c0 0.192-0.096 0.288-0.288 0.288h-1.813c-0.192 0-0.288-0.096-0.288-0.288v-11.68c0-0.192 0.096-0.288 0.288-0.288h1.813c0.192 0 0.288 0.096 0.288 0.288v4.672h1.344v-4.672c0-0.192 0.096-0.288 0.288-0.288h1.813c0.192 0 0.288 0.096 0.288 0.288z"></path>
<path fill="rgb(68, 68, 68)" d="M50.475 19.691c0 0.352-0.064 0.683-0.203 1.003-0.139 0.309-0.32 0.587-0.555 0.821s-0.501 0.416-0.821 0.555c-0.309 0.139-0.651 0.203-1.003 0.203h-0.779c-0.352 0-0.683-0.064-1.003-0.203-0.309-0.139-0.587-0.32-0.821-0.555s-0.416-0.501-0.555-0.821c-0.139-0.309-0.203-0.651-0.203-1.003v-7.392c0-0.352 0.064-0.683 0.203-1.003 0.139-0.309 0.32-0.587 0.555-0.821s0.501-0.416 0.821-0.555c0.309-0.139 0.651-0.203 1.003-0.203h0.779c0.352 0 0.683 0.064 1.003 0.203 0.309 0.139 0.587 0.32 0.821 0.555s0.416 0.501 0.555 0.821c0.139 0.309 0.203 0.651 0.203 1.003v7.392zM48.085 12.405c0-0.139-0.043-0.256-0.139-0.352s-0.213-0.139-0.352-0.139h-0.16c-0.139 0-0.256 0.043-0.352 0.139s-0.139 0.213-0.139 0.352v7.189c0 0.139 0.043 0.256 0.139 0.352s0.213 0.139 0.352 0.139h0.16c0.139 0 0.256-0.043 0.352-0.139s0.139-0.213 0.139-0.352v-7.189z"></path>
<path fill="rgb(68, 68, 68)" d="M55.456 9.877c0.352 0 0.683 0.064 1.003 0.203 0.309 0.139 0.587 0.32 0.821 0.555s0.416 0.501 0.555 0.821c0.139 0.309 0.203 0.651 0.203 1.003v2.72c0 0.352-0.064 0.683-0.203 1.003-0.139 0.309-0.32 0.587-0.555 0.821s-0.501 0.416-0.821 0.555c-0.309 0.139-0.651 0.203-1.003 0.203h-0.96v4.107c0 0.192-0.096 0.288-0.288 0.288h-1.813c-0.192 0-0.288-0.096-0.288-0.288v-11.701c0-0.192 0.096-0.288 0.288-0.288h3.061zM55.637 12.555c0-0.139-0.043-0.256-0.139-0.352s-0.213-0.139-0.352-0.139h-0.651v3.488h0.651c0.139 0 0.256-0.043 0.352-0.139s0.139-0.213 0.139-0.352v-2.507z"></path>
</svg>
