<?xml version="1.0" encoding="utf-8"?>
<!-- Generated by IcoMoon.io -->
<!DOCTYPE svg PUBLIC "-//W3C//DTD SVG 1.1//EN" "http://www.w3.org/Graphics/SVG/1.1/DTD/svg11.dtd">
<svg version="1.1" xmlns="http://www.w3.org/2000/svg" xmlns:xlink="http://www.w3.org/1999/xlink" width="32" height="32" viewBox="0 0 32 32">
<path fill="rgb(68, 68, 68)" d="M26.016 23.627l-2.677-4.288c0.427-0.128 0.789-0.416 1.013-0.811 0.299-0.544 0.288-1.205-0.043-1.728l-2.677-4.288c0.448-0.128 0.832-0.448 1.045-0.875 0.288-0.576 0.224-1.269-0.16-1.792l-5.12-6.827c-0.32-0.427-0.832-0.683-1.365-0.683s-1.045 0.256-1.365 0.683l-5.12 6.827c-0.384 0.512-0.448 1.205-0.16 1.792 0.213 0.427 0.597 0.747 1.045 0.875l-2.677 4.288c-0.331 0.523-0.341 1.184-0.043 1.728 0.224 0.395 0.587 0.683 1.013 0.811l-2.677 4.288c-0.331 0.523-0.341 1.184-0.043 1.728s0.875 0.875 1.493 0.875h5.12v1.707c0 0.939 0.768 1.707 1.707 1.707h3.413c0.939 0 1.707-0.768 1.707-1.707v-1.707h5.12c0.619 0 1.195-0.341 1.493-0.875 0.309-0.533 0.288-1.205-0.043-1.728zM17.749 27.947h-3.413v-1.707h3.413v1.707zM7.509 24.533l4.267-6.827h-2.56l4.267-6.827h-2.56l5.12-6.827 5.12 6.827h-2.56l4.267 6.827h-2.56l4.267 6.827h-17.067z"></path>
</svg>
